<svg width="171" height="393" xmlns="http://www.w3.org/2000/svg" xmlns:xlink="http://www.w3.org/1999/xlink" xmlns:svgjs="http://svgjs.com/svgjs" viewBox="350 3649 171 393"><svg width="158" height="30" xmlns="http://www.w3.org/2000/svg" xmlns:xlink="http://www.w3.org/1999/xlink" xmlns:svgjs="http://svgjs.com/svgjs" viewBox="0 0.214 158 29.571" fill="#4276a3" x="363" y="4012"><svg xmlns="http://www.w3.org/2000/svg" xmlns:xlink="http://www.w3.org/1999/xlink" width="158" height="30" viewBox="0.818 0.034 156.523 29.295"><path paint-order="stroke fill markers" fill-rule="evenodd" d="M144.893 29.329H13.265C6.391 29.329.818 23.755.818 16.88v-4.4C.818 5.606 6.391.034 13.265.034h131.628c6.874 0 12.448 5.572 12.448 12.447v4.4c0 6.874-5.574 12.448-12.448 12.448"/></svg></svg><svg width="17" height="14" xmlns="http://www.w3.org/2000/svg" xmlns:xlink="http://www.w3.org/1999/xlink" xmlns:svgjs="http://svgjs.com/svgjs" viewBox="0 0.561 17 12.878" fill="#dfa499" x="368" y="3775"><svg xmlns="http://www.w3.org/2000/svg" xmlns:xlink="http://www.w3.org/1999/xlink" width="17" height="14" viewBox="0.312 0.637 16.386 12.413"><path paint-order="stroke fill markers" fill-rule="evenodd" d="M.818 5.775l-.506 4.36s3.05 1.473 13.848 2.916c5.31-6.228.639-7.37.639-7.37l.039-5.044-12.331.798-1.69 4.34z"/></svg></svg><svg width="14" height="17" xmlns="http://www.w3.org/2000/svg" xmlns:xlink="http://www.w3.org/1999/xlink" xmlns:svgjs="http://svgjs.com/svgjs" viewBox="0.307 0 13.387 17" fill="#fefefe" x="377" y="3775"><svg xmlns="http://www.w3.org/2000/svg" xmlns:xlink="http://www.w3.org/1999/xlink" width="14" height="17" viewBox="0.873 0.807 12.71 16.14"><path paint-order="stroke fill markers" fill-rule="evenodd" d="M10.566 16.947L.873 14.299s2.866-5.443 2.606-9.467L3.219.807l10.363 3.37-3.016 12.77z"/></svg></svg><svg width="54" height="54" xmlns="http://www.w3.org/2000/svg" xmlns:xlink="http://www.w3.org/1999/xlink" xmlns:svgjs="http://svgjs.com/svgjs" viewBox="0.164 0 53.673 54" fill="#496471" x="351" y="3725"><svg xmlns="http://www.w3.org/2000/svg" xmlns:xlink="http://www.w3.org/1999/xlink" width="54" height="54" viewBox="0.753 0.297 52.835 53.158"><path paint-order="stroke fill markers" fill-rule="evenodd" d="M53.293 49.814l-2.496 3.624-2.088-1.836-28.452 1.848a2.886 2.886 0 0 1-2.868-1.92L2.641 10.922.937 6.242c-.672-1.848.576-3.84 2.496-3.96l30.66-1.98c.6-.036 1.176.12 1.668.42.54.336.984.864 1.212 1.5l16.44 45.276c.288.804.204 1.62-.12 2.316"/></svg></svg><svg width="36" height="12" xmlns="http://www.w3.org/2000/svg" xmlns:xlink="http://www.w3.org/1999/xlink" xmlns:svgjs="http://svgjs.com/svgjs" viewBox="0 0.247 36 11.506" fill="#8fabbe" x="351" y="3725"><svg xmlns="http://www.w3.org/2000/svg" xmlns:xlink="http://www.w3.org/1999/xlink" width="36" height="12" viewBox="0.753 0.297 35.008 11.189"><path paint-order="stroke fill markers" fill-rule="evenodd" d="M35.76.722L33 7.802 14.87 11.486 2.64 10.922.937 6.242c-.672-1.848.576-3.84 2.496-3.96l30.66-1.98c.6-.036 1.176.12 1.668.42"/></svg></svg><svg width="60" height="34" xmlns="http://www.w3.org/2000/svg" xmlns:xlink="http://www.w3.org/1999/xlink" xmlns:svgjs="http://svgjs.com/svgjs" viewBox="0 0.113 60 33.775" fill="#1f1410" x="382" y="3772"><svg xmlns="http://www.w3.org/2000/svg" xmlns:xlink="http://www.w3.org/1999/xlink" width="60" height="34" viewBox="0.933 0.681 59.04 33.234"><path paint-order="stroke fill markers" fill-rule="evenodd" d="M.933 20.356l54.201 13.56 4.839-21.564L4.226.681S7.916 12.043.933 20.356"/></svg></svg><svg width="54" height="54" xmlns="http://www.w3.org/2000/svg" xmlns:xlink="http://www.w3.org/1999/xlink" xmlns:svgjs="http://svgjs.com/svgjs" viewBox="0.161 0 53.678 54" fill="#283c43" x="350" y="3727"><svg xmlns="http://www.w3.org/2000/svg" xmlns:xlink="http://www.w3.org/1999/xlink" width="54" height="54" viewBox="0.223 0.767 52.839 53.156"><path paint-order="stroke fill markers" fill-rule="evenodd" d="M50.386 51.935l-30.663 1.983c-1.262.081-2.43-.698-2.873-1.918L.407 6.717c-.672-1.85.578-3.837 2.492-3.96L33.562.772c1.262-.081 2.43.698 2.873 1.918L52.88 47.974c.672 1.85-.579 3.837-2.493 3.961"/></svg></svg><svg width="26" height="32" xmlns="http://www.w3.org/2000/svg" xmlns:xlink="http://www.w3.org/1999/xlink" xmlns:svgjs="http://svgjs.com/svgjs" viewBox="0.174 0 25.651 32" fill="#eecdc5" x="359" y="3754"><svg xmlns="http://www.w3.org/2000/svg" xmlns:xlink="http://www.w3.org/1999/xlink" width="26" height="32" viewBox="0.352 0.381 24.652 30.754"><path paint-order="stroke fill markers" fill-rule="evenodd" d="M12.382 28.282c-.509.927-3.07 2.853-3.07 2.853S1.17 22.514.351 15.972l5.34-7.292L9.342.388s.831-.162 1.794 1.046c.963 1.207-1.999 8.726-1.999 8.726l-1.716 3.928 13.211-5.912s1.927.273 1.493 2.226c.762.66 2.319 1.876 1.835 3.528-3.97 2.587-9.588 5.584-9.588 5.584l-1.302 1.199 11.447-.263s1.07 1.895.038 2.681c-6.074.74-11.506 1.624-11.506 1.624s-.238 2.746-.667 3.527"/></svg></svg><svg width="18" height="64" xmlns="http://www.w3.org/2000/svg" xmlns:xlink="http://www.w3.org/1999/xlink" xmlns:svgjs="http://svgjs.com/svgjs" viewBox="0.136 0 17.728 64" fill="#1f1410" x="417" y="3725"><svg xmlns="http://www.w3.org/2000/svg" xmlns:xlink="http://www.w3.org/1999/xlink" width="18" height="64" viewBox="0.368 0.721 17.497 63.167"><path paint-order="stroke fill markers" fill-rule="evenodd" d="M11.597 1.174S6.677-1.37 5.654 5.598C4.282 14.948.368 63.497.368 63.497l17.497.39-6.268-62.713z"/></svg></svg><svg width="48" height="22" xmlns="http://www.w3.org/2000/svg" xmlns:xlink="http://www.w3.org/1999/xlink" xmlns:svgjs="http://svgjs.com/svgjs" viewBox="0 0.111 48 21.779" fill="#590000" x="385" y="3999"><svg xmlns="http://www.w3.org/2000/svg" xmlns:xlink="http://www.w3.org/1999/xlink" width="48" height="22" viewBox="0.653 0.436 47.107 21.374"><path paint-order="stroke fill markers" fill-rule="evenodd" d="M28.312.654a1.535 1.535 0 0 0-1.955.32c-2.182 2.506-8.22 9.012-12.84 9.92-4.154.818-8.766 1.091-11 1.18-.787.031-1.423.657-1.506 1.474L.662 16.94c-.086.836.435 1.607 1.22 1.801 2.99.738 10.369 2.368 17.058 2.327 6.573-.041 11.737-3.06 14.604-4.108.99-.361 2.035.381 2.106 1.474l.118 1.817c.059.916.819 1.612 1.697 1.555l8.81-.57c.843-.054 1.496-.786 1.485-1.668l-.074-6.554a1.682 1.682 0 0 0-.815-1.434L28.312.654z"/></svg></svg><svg width="48" height="22" xmlns="http://www.w3.org/2000/svg" xmlns:xlink="http://www.w3.org/1999/xlink" xmlns:svgjs="http://svgjs.com/svgjs" viewBox="0 0.113 48 21.774" fill="#9a313b" x="385" y="3997"><svg xmlns="http://www.w3.org/2000/svg" xmlns:xlink="http://www.w3.org/1999/xlink" width="48" height="22" viewBox="0.532 0.543 47.106 21.369"><path paint-order="stroke fill markers" fill-rule="evenodd" d="M47.565 13.12l.049 4.048.024 2.507c.006.875-.648 1.61-1.484 1.664l-8.812.57c-.874.056-1.634-.64-1.693-1.55l-.117-1.822a1.648 1.648 0 0 0-.444-1.042c-.418-.456-1.057-.65-1.67-.428-2.865 1.047-8.022 4.06-14.6 4.106-6.69.041-14.065-1.586-17.058-2.32-.79-.197-1.304-.974-1.22-1.803l.345-3.393c.085-.816.721-1.444 1.509-1.483 2.238-.079 6.846-.35 11.004-1.168 4.616-.913 10.65-7.417 12.833-9.923A1.539 1.539 0 0 1 28.19.76l18.554 10.924c.495.295.806.837.82 1.437"/></svg></svg><svg width="15" height="6" xmlns="http://www.w3.org/2000/svg" xmlns:xlink="http://www.w3.org/1999/xlink" xmlns:svgjs="http://svgjs.com/svgjs" viewBox="0 0.142 15 5.715" fill="#590000" x="418" y="4013"><svg xmlns="http://www.w3.org/2000/svg" xmlns:xlink="http://www.w3.org/1999/xlink" width="15" height="6" viewBox="0.895 0.651 13.81 5.262"><path paint-order="stroke fill markers" fill-rule="evenodd" d="M14.705.65l-.067 3.025c.006.875-.648 1.61-1.484 1.664l-8.813.57c-.873.056-1.632-.64-1.691-1.55l-.118-1.822C2.505 2.12 1.15 1.247.895.977L14.705.65z"/></svg></svg><svg width="56" height="218" xmlns="http://www.w3.org/2000/svg" xmlns:xlink="http://www.w3.org/1999/xlink" xmlns:svgjs="http://svgjs.com/svgjs" viewBox="0.636 0 54.728 218" fill="#496471" x="410" y="3794"><svg xmlns="http://www.w3.org/2000/svg" xmlns:xlink="http://www.w3.org/1999/xlink" width="56" height="218" viewBox="0.654 0.517 54.48 217.012"><path paint-order="stroke fill markers" fill-rule="evenodd" d="M55.134 9.248L46.509 81.52s-3.63 10.544-7.25 22.393c-4.108 13.435-8.207 28.542-6.996 31.77 1.136 3.022-.025 16.267-2.083 31.739-2.053 15.55-4.987 38.168-7.361 50.107-2.948-.228-6.301-1.697-9.494-3.58-6.696-3.918-12.67-9.672-12.67-9.672s7.29-38.213 10.537-53.696c.804-3.842 1.354-6.581 1.487-7.427.37-2.414-.812-5.97-1.961-9.018-.88-2.374-1.729-4.435-1.793-5.437-.135-2.081 9.698-82.036 11.392-95.76.155-1.29.247-2.001.247-2.001L26.304.517l28.83 8.731z"/></svg></svg><svg width="21" height="84" xmlns="http://www.w3.org/2000/svg" xmlns:xlink="http://www.w3.org/1999/xlink" xmlns:svgjs="http://svgjs.com/svgjs" viewBox="0.701 0 19.597 84" fill="#344b54" x="420" y="3928"><svg xmlns="http://www.w3.org/2000/svg" xmlns:xlink="http://www.w3.org/1999/xlink" width="21" height="84" viewBox="0.715 0.097 19.465 83.431"><path paint-order="stroke fill markers" fill-rule="evenodd" d="M.715.097L20.18 33.422c-2.053 15.55-4.987 38.168-7.36 50.106-2.949-.227-6.302-1.696-9.495-3.58-.878-18.809-1.667-47.64-2.133-63.367C.908 7.153.73.697.718.136L.715.096"/></svg></svg><svg width="36" height="104" xmlns="http://www.w3.org/2000/svg" xmlns:xlink="http://www.w3.org/1999/xlink" xmlns:svgjs="http://svgjs.com/svgjs" viewBox="0.49 0 35.02 104" fill="#344b54" x="430" y="3794"><svg xmlns="http://www.w3.org/2000/svg" xmlns:xlink="http://www.w3.org/1999/xlink" width="36" height="104" viewBox="0.317 0.517 34.816 103.396"><path paint-order="stroke fill markers" fill-rule="evenodd" d="M35.134 9.248L26.509 81.52s-3.63 10.544-7.25 22.393L.316 32.94c.155-1.29.247-2.002.247-2.002L6.304.517l28.83 8.731z"/></svg></svg><svg width="48" height="11" xmlns="http://www.w3.org/2000/svg" xmlns:xlink="http://www.w3.org/1999/xlink" xmlns:svgjs="http://svgjs.com/svgjs" viewBox="0 0.391 48 10.217" fill="#590000" x="436" y="4025"><svg xmlns="http://www.w3.org/2000/svg" xmlns:xlink="http://www.w3.org/1999/xlink" width="48" height="11" viewBox="0.662 0.186 46.527 9.904"><path paint-order="stroke fill markers" fill-rule="evenodd" d="M3.027.186L.662.903l.369 5.7s.488 1.764 4.499 3.22c2.981 1.081 41.659-1.47 41.659-1.47l-.52-8.05L3.027.186z"/></svg></svg><svg width="47" height="27" xmlns="http://www.w3.org/2000/svg" xmlns:xlink="http://www.w3.org/1999/xlink" xmlns:svgjs="http://svgjs.com/svgjs" viewBox="0 0.542 47 25.916" fill="#9a313b" x="436" y="4006"><svg xmlns="http://www.w3.org/2000/svg" xmlns:xlink="http://www.w3.org/1999/xlink" width="47" height="27" viewBox="0.66 0.864 45.818 25.265"><path paint-order="stroke fill markers" fill-rule="evenodd" d="M27.367.864S23.937 8.53 13.42 12.499C2.903 16.469 1.18 16.019.662 19.903c0 0-.243 3.779 4.273 5.774 4.516 1.994 41.543-3.259 41.543-3.259S37.466 3.387 27.367.864"/></svg></svg><svg width="47" height="232" xmlns="http://www.w3.org/2000/svg" xmlns:xlink="http://www.w3.org/1999/xlink" xmlns:svgjs="http://svgjs.com/svgjs" viewBox="0.457 0 46.085 232" fill="#607e8d" x="443" y="3798"><svg xmlns="http://www.w3.org/2000/svg" xmlns:xlink="http://www.w3.org/1999/xlink" width="47" height="232" viewBox="0.267 0.483 45.978 231.461"><path paint-order="stroke fill markers" fill-rule="evenodd" d="M46.226 67.683c-.175 17.845-1.524 40.391-5.494 66.218.988 5.004 5.88 57.393-.854 98.043 0 0-2.538-3.585-6.003-7.935-2.714-3.39-5.997-7.255-9.087-10.269-2.315-2.254-4.535-4.031-6.324-4.752 0 0-2.013-.889-.468-7.246 1.53-6.358 9.302-45.507 2.141-64.956a33.321 33.321 0 0 1-.655-1.983C15.08 120.038 8.934 73.636 4.795 39.49A3660.666 3660.666 0 0 1 1.248 9.251C.616 3.74.268.483.268.483l22.26 8.529 2.31 1.615L43.99 23.994s.778 5.045 1.409 14.228v.014c.513 7.336.944 17.302.827 29.447"/></svg></svg><svg width="14" height="201" xmlns="http://www.w3.org/2000/svg" xmlns:xlink="http://www.w3.org/1999/xlink" xmlns:svgjs="http://svgjs.com/svgjs" viewBox="0.802 0 12.396 201" fill="#4a6572" x="476" y="3829"><svg xmlns="http://www.w3.org/2000/svg" xmlns:xlink="http://www.w3.org/1999/xlink" width="14" height="201" viewBox="0.875 0.369 12.37 200.575"><path paint-order="stroke fill markers" fill-rule="evenodd" d="M7.732 102.9c.988 5.006 5.88 57.394-.854 98.044 0 0-2.538-3.585-6.003-7.934 5.096-34.195 1.084-75.3 1.084-75.3C7.127 63.117 3.419.37 3.419.37l8.98 6.853v.013c1.27 18.091 2.014 52.26-4.667 95.664"/></svg></svg><svg width="46" height="59" xmlns="http://www.w3.org/2000/svg" xmlns:xlink="http://www.w3.org/1999/xlink" xmlns:svgjs="http://svgjs.com/svgjs" viewBox="0.282 0 45.435 59" fill="#4a6572" x="444" y="3807"><svg xmlns="http://www.w3.org/2000/svg" xmlns:xlink="http://www.w3.org/1999/xlink" width="46" height="59" viewBox="0.248 0.251 44.998 58.432"><path paint-order="stroke fill markers" fill-rule="evenodd" d="M45.226 58.683L13.13 34.877l-9.334-4.388A3660.666 3660.666 0 0 1 .248.251l23.59 1.376L42.99 14.994s.778 5.045 1.409 14.228v.014c.513 7.336.944 17.302.827 29.447"/></svg></svg><svg width="11" height="80" xmlns="http://www.w3.org/2000/svg" xmlns:xlink="http://www.w3.org/1999/xlink" xmlns:svgjs="http://svgjs.com/svgjs" viewBox="0.499 0 10.001 80" fill="#4a6572" x="460" y="3932"><svg xmlns="http://www.w3.org/2000/svg" xmlns:xlink="http://www.w3.org/1999/xlink" width="11" height="80" viewBox="0.412 0.803 9.869 78.937"><path paint-order="stroke fill markers" fill-rule="evenodd" d="M9.794 50.292c-.908 13.294-1.551 22.73-2.007 29.448-2.314-2.254-4.534-4.031-6.323-4.751 0 0-2.013-.89-.469-7.248 1.532-6.357 9.303-45.506 2.142-64.955A33.487 33.487 0 0 1 2.482.803c3.547 4.253 9.55 16.46 7.312 49.49"/></svg></svg><svg width="13" height="20" xmlns="http://www.w3.org/2000/svg" xmlns:xlink="http://www.w3.org/1999/xlink" xmlns:svgjs="http://svgjs.com/svgjs" viewBox="0.21 0 12.58 20" fill="#a8d7dd" x="440" y="3789"><svg xmlns="http://www.w3.org/2000/svg" xmlns:xlink="http://www.w3.org/1999/xlink" width="13" height="20" viewBox="0.573 0.957 11.642 18.51"><path paint-order="stroke fill markers" fill-rule="evenodd" d="M.573 18.578l11.642.89-.54-18.51-7.5 1.644L.573 18.578z"/></svg></svg><svg width="30" height="128" xmlns="http://www.w3.org/2000/svg" xmlns:xlink="http://www.w3.org/1999/xlink" xmlns:svgjs="http://svgjs.com/svgjs" viewBox="0.473 0 29.055 128" fill="#283c43" x="425" y="3719"><svg xmlns="http://www.w3.org/2000/svg" xmlns:xlink="http://www.w3.org/1999/xlink" width="30" height="128" viewBox="0.511 0.044 28.867 127.171"><path paint-order="stroke fill markers" fill-rule="evenodd" d="M29.377.044S16.328.503 4.606 4.891c-3.005 1.125-3.172 1.5-3.28 4.79C.704 28.4 2.408 43.359 5.76 64.824c-2.479 13.963-3.849 41.125-5.25 59.44 0 0 5.753 2.766 12.383 2.95l8.59-60.555L29.377.044z"/></svg></svg><svg width="40" height="69" xmlns="http://www.w3.org/2000/svg" xmlns:xlink="http://www.w3.org/1999/xlink" xmlns:svgjs="http://svgjs.com/svgjs" viewBox="0.169 0 39.662 69" fill="#eef3f6" x="437" y="3709"><svg xmlns="http://www.w3.org/2000/svg" xmlns:xlink="http://www.w3.org/1999/xlink" width="40" height="69" viewBox="0.529 0.901 38.895 67.666"><path paint-order="stroke fill markers" fill-rule="evenodd" d="M39.424 8.619L14.465 60.61l-3.824 7.956-7.993-2.778s-.273-1.842-.63-4.81c-1.005-8.42-2.63-25.87-.277-35.542C4.915 12.382 9.558 8.86 9.558 8.86L33.18.901l6.244 7.718z"/></svg></svg><svg width="12" height="16" xmlns="http://www.w3.org/2000/svg" xmlns:xlink="http://www.w3.org/1999/xlink" xmlns:svgjs="http://svgjs.com/svgjs" viewBox="0.159 0 11.682 16" fill="#fefefe" x="438" y="3719"><svg xmlns="http://www.w3.org/2000/svg" xmlns:xlink="http://www.w3.org/1999/xlink" width="12" height="16" viewBox="0.745 0.344 11.021 15.095"><path paint-order="stroke fill markers" fill-rule="evenodd" d="M.745 15.44l10.446-7.626.576-7.135-6.01-.335S1.013 10.371.745 15.44"/></svg></svg><svg width="26" height="37" xmlns="http://www.w3.org/2000/svg" xmlns:xlink="http://www.w3.org/1999/xlink" xmlns:svgjs="http://svgjs.com/svgjs" viewBox="0.439 0 25.122 37" fill="#f0c9c0" x="445" y="3691"><svg xmlns="http://www.w3.org/2000/svg" xmlns:xlink="http://www.w3.org/1999/xlink" width="26" height="37" viewBox="0.902 0.146 24.41 35.951"><path paint-order="stroke fill markers" fill-rule="evenodd" d="M22.746.146L25.31 20.93l-19.5 15.168-4.91-11.073L22.747.146z"/></svg></svg><svg width="47" height="72" xmlns="http://www.w3.org/2000/svg" xmlns:xlink="http://www.w3.org/1999/xlink" xmlns:svgjs="http://svgjs.com/svgjs" viewBox="0 0.31 47 71.38" fill="#344b54" x="426" y="3649"><svg xmlns="http://www.w3.org/2000/svg" xmlns:xlink="http://www.w3.org/1999/xlink" width="47" height="72" viewBox="0.61 0.967 46.159 70.103"><path paint-order="stroke fill markers" fill-rule="evenodd" d="M45.936 31.426c-1.07 3.915-1.862 6.045-1.862 6.045l-1.709 3.022-2.13 14.654s-5.279 14.092-17.713 15.737a14.02 14.02 0 0 1-1.046.115c-3.022.216-5.445-.078-7.384-.677a11.8 11.8 0 0 1-2.678-1.198c-4.54-2.717-5.063-7.461-5.05-8.43.013-1.352 5.407-16.12 6.121-18.058.051-.14.077-.217.077-.217l.166-9.463.114-6.427-3.354-2.22S1.48 20.561.676 13.01c-.319-2.997.549-5.355 1.786-7.154C4.336 3.14 7.04 1.737 7.665 1.495c.523-.204 4.234-1.033 10.585-.077 3.022.46 6.657 1.314 10.827 2.844 4.438 1.633 9.488 4.03 15.074 7.5 2.959 3.723 3.188 14.576 1.785 19.664"/></svg></svg><svg width="10" height="16" xmlns="http://www.w3.org/2000/svg" xmlns:xlink="http://www.w3.org/1999/xlink" xmlns:svgjs="http://svgjs.com/svgjs" viewBox="0.531 0 8.938 16" fill="#f5e3de" x="466" y="3678"><svg xmlns="http://www.w3.org/2000/svg" xmlns:xlink="http://www.w3.org/1999/xlink" width="10" height="16" viewBox="0.917 0.132 8.321 14.896"><path paint-order="stroke fill markers" fill-rule="evenodd" d="M1.792 1.72s5.77-4.27 7.115 1.195c1.2 4.885-.746 12.107-7.783 12.114-.72-8.018.668-13.309.668-13.309"/></svg></svg><svg width="18" height="56" xmlns="http://www.w3.org/2000/svg" xmlns:xlink="http://www.w3.org/1999/xlink" xmlns:svgjs="http://svgjs.com/svgjs" viewBox="0 0.479 18 55.041" fill="#283c43" x="439" y="3722"><svg xmlns="http://www.w3.org/2000/svg" xmlns:xlink="http://www.w3.org/1999/xlink" width="18" height="56" viewBox="0.018 0.761 17.923 54.806"><path paint-order="stroke fill markers" fill-rule="evenodd" d="M17.941 4.343s-3.206 2.152-4.884 12.205c-1.244 7.46-.867 23.337-.592 31.064l-3.824 7.954L.65 52.79s-.273-1.842-.63-4.81c1.714-8.755 4.969-23.505 9.36-34.937 0 0-2.852-5.712.6-11.904 3.04.192 5.827-.377 5.827-.377l2.135 3.582z"/></svg></svg><svg width="24" height="30" xmlns="http://www.w3.org/2000/svg" xmlns:xlink="http://www.w3.org/1999/xlink" xmlns:svgjs="http://svgjs.com/svgjs" viewBox="0 0.292 24 29.415" fill="#fefefe" x="453" y="3709"><svg xmlns="http://www.w3.org/2000/svg" xmlns:xlink="http://www.w3.org/1999/xlink" width="24" height="30" viewBox="0.205 0.905 23.224 28.464"><path paint-order="stroke fill markers" fill-rule="evenodd" d="M17.18.905L.206 14.134 13.46 29.369l9.968-20.755L17.18.904z"/></svg></svg><svg width="68" height="137" xmlns="http://www.w3.org/2000/svg" xmlns:xlink="http://www.w3.org/1999/xlink" xmlns:svgjs="http://svgjs.com/svgjs" viewBox="0.372 0 67.256 137" fill="#283c43" x="440" y="3717"><svg xmlns="http://www.w3.org/2000/svg" xmlns:xlink="http://www.w3.org/1999/xlink" width="68" height="137" viewBox="0.952 0.619 66.67 135.806"><path paint-order="stroke fill markers" fill-rule="evenodd" d="M47.57 83.222s6.505 36.245 5.317 48.148c-.303 3.035-48.535 7.738-50.914 3.114-1.69-3.295-.342-28.226-.99-45.727-.267-7.058 1.29-20.022 1.618-24.833C5.141 26.254 36.424.619 36.424.619s.804 1.213 2.66 1.274c4.58.151 20.64 3.235 28.538 11.696L47.57 83.222z"/></svg></svg><svg width="44" height="81" xmlns="http://www.w3.org/2000/svg" xmlns:xlink="http://www.w3.org/1999/xlink" xmlns:svgjs="http://svgjs.com/svgjs" viewBox="0.696 0 42.607 81" fill="#1f1410" x="436" y="3715"><svg xmlns="http://www.w3.org/2000/svg" xmlns:xlink="http://www.w3.org/1999/xlink" width="44" height="81" viewBox="0.547 0.092 42.537 80.865"><path paint-order="stroke fill markers" fill-rule="evenodd" d="M38.019 27.757l-11.724.758 5.59 6.738S15.83 48.74 5.06 80.958C4.794 73.899-.266 79.29.66 74.559 9.01 31.859 38.38.092 38.38.092l4.703 3.8-5.064 23.865z"/></svg></svg><svg width="5" height="5" xmlns="http://www.w3.org/2000/svg" xmlns:xlink="http://www.w3.org/1999/xlink" xmlns:svgjs="http://svgjs.com/svgjs" fill="#496471" x="442" y="3798"><svg xmlns="http://www.w3.org/2000/svg" xmlns:xlink="http://www.w3.org/1999/xlink" width="5" height="5" viewBox="0.361 0.802 3.774 3.774"><path paint-order="stroke fill markers" fill-rule="evenodd" d="M4.135 2.688a1.887 1.887 0 1 1-3.774 0 1.887 1.887 0 0 1 3.774 0"/></svg></svg><svg width="29" height="28" xmlns="http://www.w3.org/2000/svg" xmlns:xlink="http://www.w3.org/1999/xlink" xmlns:svgjs="http://svgjs.com/svgjs" viewBox="0 0.064 29 27.871" fill="#283c43" x="426" y="3654"><svg xmlns="http://www.w3.org/2000/svg" xmlns:xlink="http://www.w3.org/1999/xlink" width="29" height="28" viewBox="0.61 0.793 28.264 27.163"><path paint-order="stroke fill markers" fill-rule="evenodd" d="M28.873 12.398l-4.221 10.291-11.924 5.267.115-6.427-3.354-2.22S1.479 15.56.676 8.012C.357 5.014 1.225 2.654 2.462.856c21.91-1.058 26.411 11.542 26.411 11.542"/></svg></svg><svg width="14" height="14" xmlns="http://www.w3.org/2000/svg" xmlns:xlink="http://www.w3.org/1999/xlink" xmlns:svgjs="http://svgjs.com/svgjs" viewBox="0 0.491 14 13.018" fill="#283c43" x="444" y="3650"><svg xmlns="http://www.w3.org/2000/svg" xmlns:xlink="http://www.w3.org/1999/xlink" width="14" height="14" viewBox="0.25 0.418 13.633 12.676"><path paint-order="stroke fill markers" fill-rule="evenodd" d="M.25.418c3.022.46 6.657 1.314 10.827 2.844 1.3 2.423 2.398 5.612 2.806 9.833C11.333 6.54 5.35 2.65.25.418"/></svg></svg><svg width="30" height="33" xmlns="http://www.w3.org/2000/svg" xmlns:xlink="http://www.w3.org/1999/xlink" xmlns:svgjs="http://svgjs.com/svgjs" viewBox="0 0.404 30 32.192" fill="#eecdc5" x="435" y="3664"><svg xmlns="http://www.w3.org/2000/svg" xmlns:xlink="http://www.w3.org/1999/xlink" width="30" height="33" viewBox="0.391 0.971 29.519 31.676"><path paint-order="stroke fill markers" fill-rule="evenodd" d="M29.795 23.147l-8.723 9.5-3.724-.242-14.169-.892S-.519 16.285.603 8.39C7.095 2.117 16.175 1.084 20.485.981c1.518-.037 2.449.04 2.449.04s1.185 4.948 1.39 8.06c6.86 1.912 5.47 14.066 5.47 14.066"/></svg></svg><svg width="3" height="4" xmlns="http://www.w3.org/2000/svg" xmlns:xlink="http://www.w3.org/1999/xlink" xmlns:svgjs="http://svgjs.com/svgjs" viewBox="0 0.344 3 3.311" fill="#215589" x="437" y="3683"><svg xmlns="http://www.w3.org/2000/svg" xmlns:xlink="http://www.w3.org/1999/xlink" width="3" height="4" viewBox="0.059 0.628 2.929 3.233"><path paint-order="stroke fill markers" fill-rule="evenodd" d="M2.984 2.15c.058.891-.55 1.656-1.356 1.708C.822 3.91.121 3.23.063 2.34.006 1.45.613.684 1.419.631c.807-.052 1.507.628 1.565 1.52"/></svg></svg><svg width="7" height="3" xmlns="http://www.w3.org/2000/svg" xmlns:xlink="http://www.w3.org/1999/xlink" xmlns:svgjs="http://svgjs.com/svgjs" viewBox="0 0.775 7 1.451" fill="#344b54" x="435" y="3679"><svg xmlns="http://www.w3.org/2000/svg" xmlns:xlink="http://www.w3.org/1999/xlink" width="7" height="3" viewBox="0.682 0.906 6.127 1.27"><path paint-order="stroke fill markers" fill-rule="evenodd" d="M6.56 2.175a.25.25 0 0 1-.085-.015C2.6.761 1.084 1.724 1.069 1.733a.25.25 0 0 1-.276-.415c.07-.046 1.744-1.11 5.85.374a.25.25 0 0 1-.084.483"/></svg></svg><svg width="14" height="33" xmlns="http://www.w3.org/2000/svg" xmlns:xlink="http://www.w3.org/1999/xlink" xmlns:svgjs="http://svgjs.com/svgjs" viewBox="0 0.387 14 32.227" fill="#f5e3de" x="451" y="3664"><svg xmlns="http://www.w3.org/2000/svg" xmlns:xlink="http://www.w3.org/1999/xlink" width="14" height="33" viewBox="0.15 0.971 13.761 31.676"><path paint-order="stroke fill markers" fill-rule="evenodd" d="M13.795 23.147l-8.723 9.5-3.724-.242C-1.968 17.612 2.432 5.484 4.485.982c1.518-.038 2.449.038 2.449.038s1.185 4.949 1.39 8.06c6.86 1.913 5.47 14.067 5.47 14.067"/></svg></svg><svg width="4" height="4" xmlns="http://www.w3.org/2000/svg" xmlns:xlink="http://www.w3.org/1999/xlink" xmlns:svgjs="http://svgjs.com/svgjs" viewBox="0.188 0 3.624 4" fill="#215589" x="450" y="3682"><svg xmlns="http://www.w3.org/2000/svg" xmlns:xlink="http://www.w3.org/1999/xlink" width="4" height="4" viewBox="0.247 0.316 2.929 3.233"><path paint-order="stroke fill markers" fill-rule="evenodd" d="M3.172 1.837c.057.891-.55 1.656-1.356 1.708C1.009 3.597.308 2.917.25 2.026.193 1.136.8.371 1.607.318c.806-.052 1.507.628 1.565 1.52"/></svg></svg><svg width="10" height="5" xmlns="http://www.w3.org/2000/svg" xmlns:xlink="http://www.w3.org/1999/xlink" xmlns:svgjs="http://svgjs.com/svgjs" viewBox="0 0.789 10 3.422" fill="#344b54" x="447" y="3677"><svg xmlns="http://www.w3.org/2000/svg" xmlns:xlink="http://www.w3.org/1999/xlink" width="10" height="5" viewBox="0.011 0.875 9.641 3.3"><path paint-order="stroke fill markers" fill-rule="evenodd" d="M.26 4.175a.25.25 0 0 1-.216-.373c.096-.166 2.424-4.043 9.409-2.61.135.028.222.16.194.294a.247.247 0 0 1-.294.194c-3.468-.71-5.695-.026-6.956.673C1.037 3.107.481 4.04.476 4.05a.249.249 0 0 1-.216.124"/></svg></svg><svg width="24" height="26" xmlns="http://www.w3.org/2000/svg" xmlns:xlink="http://www.w3.org/1999/xlink" xmlns:svgjs="http://svgjs.com/svgjs" viewBox="0 0.226 24 25.548" fill="#283c43" x="432" y="3695"><svg xmlns="http://www.w3.org/2000/svg" xmlns:xlink="http://www.w3.org/1999/xlink" width="24" height="26" viewBox="0.364 0.565 23.02 24.504"><path paint-order="stroke fill markers" fill-rule="evenodd" d="M23.383 2.094s-5.433 10.253-6.86 22.79c-.345.05-.69.089-1.047.115-3.022.216-5.445-.078-7.384-.676C9.176 19.45 10.72 13.89 12.888 9.299c-3.354 4.056-5.803 9.297-7.474 13.825-4.54-2.717-5.062-7.461-5.05-8.43.013-1.352 5.94-12.19 6.654-14.129l16.365 1.53z"/></svg></svg><svg width="11" height="6" xmlns="http://www.w3.org/2000/svg" xmlns:xlink="http://www.w3.org/1999/xlink" xmlns:svgjs="http://svgjs.com/svgjs" viewBox="0 0.6 11 4.801" fill="#f0c9c0" x="440" y="3694"><svg xmlns="http://www.w3.org/2000/svg" xmlns:xlink="http://www.w3.org/1999/xlink" width="11" height="6" viewBox="0.275 0.92 9.953 4.344"><path paint-order="stroke fill markers" fill-rule="evenodd" d="M.275 3.67S2.013 5.345 5.05 5.26c3.037-.084 5.18-1.6 5.18-1.6L7.376.92.6 1.668.275 3.67z"/></svg></svg><svg width="38" height="7" xmlns="http://www.w3.org/2000/svg" xmlns:xlink="http://www.w3.org/1999/xlink" xmlns:svgjs="http://svgjs.com/svgjs" viewBox="0 0.27 38 6.459" fill="#1f1410" x="431" y="3692"><svg xmlns="http://www.w3.org/2000/svg" xmlns:xlink="http://www.w3.org/1999/xlink" width="38" height="7" viewBox="0.378 0.487 37.294 6.339"><path paint-order="stroke fill markers" fill-rule="evenodd" d="M12.942.79S15.164.648 18.5.493c3.898-.18 10.832 4.551 15.224 3.597 4.393-.955 3.934-1.595 3.934-1.595s-2.816 3.757-9.083 4.274C22.307 7.285 14.72 4.2 14.72 4.2S10.364 5.711 6.68 5.838c-3.686.127-6.3-3.355-6.3-3.355s1.51 1.541 3.123 1.27C5.114 3.48 8.087 1.5 9.496 1.074 10.906.648 12.942.79 12.942.79"/></svg></svg><svg width="6" height="15" xmlns="http://www.w3.org/2000/svg" xmlns:xlink="http://www.w3.org/1999/xlink" xmlns:svgjs="http://svgjs.com/svgjs" viewBox="0.084 0 5.832 15" fill="#f0c9c0" x="440" y="3679"><svg xmlns="http://www.w3.org/2000/svg" xmlns:xlink="http://www.w3.org/1999/xlink" width="6" height="15" viewBox="0.478 0.615 5.315 13.669"><path paint-order="stroke fill markers" fill-rule="evenodd" d="M5.79 13.07c.047.665-.467 1.222-1.116 1.214-1.51-.019-4.011-.094-4.182-.394C.247 13.459 3.341-.297 4.088.663c.35.452 1.47 9.12 1.702 12.406"/></svg></svg><svg width="13" height="55" xmlns="http://www.w3.org/2000/svg" xmlns:xlink="http://www.w3.org/1999/xlink" xmlns:svgjs="http://svgjs.com/svgjs" viewBox="0.543 0 11.914 55" fill="#1f1410" x="431" y="3720"><svg xmlns="http://www.w3.org/2000/svg" xmlns:xlink="http://www.w3.org/1999/xlink" width="13" height="55" viewBox="0.679 0.073 11.742 54.21"><path paint-order="stroke fill markers" fill-rule="evenodd" d="M9.953.741s-5.33 5.358-6.99 12.21l.207.31 2.377 4.051L.679 21.19s.723 18.44 4.67 32.35c3.635 2.076 3.01-.859 3.01-.859s-3.743-30.542-.26-40.62C11.578 1.983 12.42.073 12.42.073L9.953.74z"/></svg></svg><svg width="4" height="3" xmlns="http://www.w3.org/2000/svg" xmlns:xlink="http://www.w3.org/1999/xlink" xmlns:svgjs="http://svgjs.com/svgjs" viewBox="0.5 0 2.999 3" fill="#1f1410" x="467" y="3686"><svg xmlns="http://www.w3.org/2000/svg" xmlns:xlink="http://www.w3.org/1999/xlink" width="4" height="3" viewBox="0.841 0.03 2.407 2.407"><path paint-order="stroke fill markers" fill-rule="evenodd" d="M3.248 1.234a1.204 1.204 0 1 1-2.407 0 1.204 1.204 0 0 1 2.407 0"/></svg></svg><svg width="78" height="127" xmlns="http://www.w3.org/2000/svg" xmlns:xlink="http://www.w3.org/1999/xlink" xmlns:svgjs="http://svgjs.com/svgjs" viewBox="0.469 0 77.063 127" fill="#1f1410" x="392" y="3687"><svg xmlns="http://www.w3.org/2000/svg" xmlns:xlink="http://www.w3.org/1999/xlink" width="78" height="127" viewBox="0.481 0.075 76.691 126.387"><path paint-order="stroke fill markers" fill-rule="evenodd" d="M19.805 126.462c-1.516 0-3.028-.437-4.524-1.312a.5.5 0 0 1-.055-.038C-1.152 112.331.518 93.327.537 93.137a.5.5 0 0 1 .995.098c-.018.185-1.622 18.635 14.282 31.068 2.413 1.4 4.766 1.538 7.194.418 6.931-3.201 14.099-16.888 20.726-39.582 5.031-17.229 7.992-33.694 8.022-33.858a.499.499 0 0 1 .152-.28C72.548 31.887 76.141.833 76.175.522a.5.5 0 0 1 .994.108c-.034.314-3.647 31.609-24.458 50.992-.804 4.45-12.226 66.132-29.284 74.007-1.205.556-2.414.834-3.622.834"/></svg></svg><svg width="6" height="21" xmlns="http://www.w3.org/2000/svg" xmlns:xlink="http://www.w3.org/1999/xlink" xmlns:svgjs="http://svgjs.com/svgjs" viewBox="0.299 0 5.401 21" fill="#1f1410" x="439" y="3718"><svg xmlns="http://www.w3.org/2000/svg" xmlns:xlink="http://www.w3.org/1999/xlink" width="6" height="21" viewBox="0.592 0.823 5.156 20.046"><path paint-order="stroke fill markers" fill-rule="evenodd" d="M5.248 20.869a.5.5 0 0 1-.459-.302C1.026 11.873.596 1.446.592 1.341a.5.5 0 1 1 1-.037c.003.102.427 10.347 4.114 18.866a.5.5 0 0 1-.458.699"/></svg></svg><svg width="42" height="36" xmlns="http://www.w3.org/2000/svg" xmlns:xlink="http://www.w3.org/1999/xlink" xmlns:svgjs="http://svgjs.com/svgjs" viewBox="0 0.124 42 35.753" fill="#eecdc5" x="403" y="3750"><svg xmlns="http://www.w3.org/2000/svg" xmlns:xlink="http://www.w3.org/1999/xlink" width="42" height="36" viewBox="0.817 0.718 40.431 34.417"><path paint-order="stroke fill markers" fill-rule="evenodd" d="M41.248 25.923l-1.638 9.212-14.124-8.193s-1.313-.39-3.728-.622c-2.416-.245-6.877-6.545-6.877-6.545l-7.654-2.642s-.36-.098-.901-.233c-1.482-.427-4.29-1.267-4.488-1.777-.281-.687.208-1.35.208-1.35l5.27.522.262.031s6.28 1.515 6.651 1.406c.384-.098-.354-.913-.354-.913L9.469 8.1s-.723-.208-1.76-.53C5.235 6.795 1.007 5.378.854 4.67c-.218-1.007.592-1.449.592-1.449l7.47 1.28c-.447-.166-2.374-.904-3.206-1.325-.941-.486-1.675-1.229-1.797-1.84C3.801.71 5.02.716 5.02.716l6.427 1.227.012-.001L17 3.006s6.022 9.41 9.716 13.34c3.681 3.92 14.532 9.577 14.532 9.577"/></svg></svg><svg width="7" height="4" xmlns="http://www.w3.org/2000/svg" xmlns:xlink="http://www.w3.org/1999/xlink" xmlns:svgjs="http://svgjs.com/svgjs" viewBox="0 0.033 7 3.933" fill="#f7ebdb" x="404" y="3763"><svg xmlns="http://www.w3.org/2000/svg" xmlns:xlink="http://www.w3.org/1999/xlink" width="7" height="4" viewBox="0.751 0.773 5.565 3.127"><path paint-order="stroke fill markers" fill-rule="evenodd" d="M6.316 1.294L5.326 3.9C3.844 3.472 1.036 2.633.837 2.123c-.28-.687.209-1.35.209-1.35l5.27.521z"/></svg></svg><svg width="12" height="8" xmlns="http://www.w3.org/2000/svg" xmlns:xlink="http://www.w3.org/1999/xlink" xmlns:svgjs="http://svgjs.com/svgjs" viewBox="0 0.132 12 7.737" fill="#f7ebdb" x="403" y="3750"><svg xmlns="http://www.w3.org/2000/svg" xmlns:xlink="http://www.w3.org/1999/xlink" width="12" height="8" viewBox="0.817 0.717 10.63 6.853"><path paint-order="stroke fill markers" fill-rule="evenodd" d="M11.446 1.943C9.052 3.12 10.55 4.336 8.99 4.522c-1.126.133-1.276 2.015-1.28 3.049-2.474-.777-6.703-2.193-6.855-2.9-.219-1.007.592-1.449.592-1.449l7.47 1.28c-.448-.166-2.375-.904-3.206-1.325-.941-.485-1.675-1.229-1.797-1.84C3.801.71 5.019.716 5.019.716l6.427 1.226z"/></svg></svg><svg width="14" height="22" xmlns="http://www.w3.org/2000/svg" xmlns:xlink="http://www.w3.org/1999/xlink" xmlns:svgjs="http://svgjs.com/svgjs" viewBox="0 0.29 14 21.42" fill="#fefefe" x="430" y="3768"><svg xmlns="http://www.w3.org/2000/svg" xmlns:xlink="http://www.w3.org/1999/xlink" width="14" height="22" viewBox="0.027 0.659 13.66 20.899"><path paint-order="stroke fill markers" fill-rule="evenodd" d="M13.687 4.476L5.534.66S.185 9.745.027 17.918c3.222 1.44 9.24 3.641 9.24 3.641l4.42-17.083z"/></svg></svg><svg width="75" height="85" xmlns="http://www.w3.org/2000/svg" xmlns:xlink="http://www.w3.org/1999/xlink" xmlns:svgjs="http://svgjs.com/svgjs" viewBox="0.099 0 74.802 85" fill="#1f1410" x="435" y="3727"><svg xmlns="http://www.w3.org/2000/svg" width="75" height="85" viewBox="0.16 0.496 74.214 84.332"><path paint-order="stroke fill markers" fill-rule="evenodd" d="M74.374 8.051c0-2.679-2.088-8.722-9.844-7.356C56.773 2.06 54.09 13.267 52.428 17.932c-1.662 4.666-6.619 38.083-8.959 39.863L7.6 43.951S.585 57.837.16 66.45c0 0 34.275 16.398 54.95 18.38 0 0 19.276-45.512 19.264-76.778"/></svg></svg></svg>