<svg width="821" height="157" xmlns="http://www.w3.org/2000/svg" xmlns:xlink="http://www.w3.org/1999/xlink" xmlns:svgjs="http://svgjs.com/svgjs" viewBox="88 3540 821 157"><svg width="29" height="30" xmlns="http://www.w3.org/2000/svg" xmlns:xlink="http://www.w3.org/1999/xlink" xmlns:svgjs="http://svgjs.com/svgjs" viewBox="0.127 0 28.746 30" fill="#518abd" x="879" y="3578"><svg xmlns="http://www.w3.org/2000/svg" xmlns:xlink="http://www.w3.org/1999/xlink" width="29" height="30" viewBox="0.93 0.287 27.834 29.049"><path paint-order="stroke fill markers" fill-rule="evenodd" d="M18.67 28.395L1.674 9.665a2.866 2.866 0 0 1 .208-4.06L6.987 1.02a2.867 2.867 0 0 1 4.038.207l16.996 18.731a2.867 2.867 0 0 1-.208 4.06l-5.105 4.584a2.866 2.866 0 0 1-4.038-.207"/></svg></svg><svg width="30" height="31" xmlns="http://www.w3.org/2000/svg" xmlns:xlink="http://www.w3.org/1999/xlink" xmlns:svgjs="http://svgjs.com/svgjs" viewBox="0.121 0 29.758 31" fill="#0e6c95" x="879" y="3577"><svg xmlns="http://www.w3.org/2000/svg" xmlns:xlink="http://www.w3.org/1999/xlink" width="30" height="31" viewBox="0.303 0.66 29.09 30.304"><path paint-order="stroke fill markers" fill-rule="evenodd" d="M9.19 1.933a2.237 2.237 0 0 0-1.784.554L2.301 7.073c-.447.4-.71.951-.74 1.55-.031.6.174 1.174.577 1.62l16.997 18.731a2.235 2.235 0 0 0 3.153.16l5.107-4.584c.446-.4.709-.951.74-1.552a2.223 2.223 0 0 0-.579-1.618L10.56 2.65a2.238 2.238 0 0 0-1.37-.716m11.155 29.002a3.5 3.5 0 0 1-2.14-1.118L1.209 11.086a3.474 3.474 0 0 1-.902-2.527 3.472 3.472 0 0 1 1.156-2.42l5.105-4.585a3.499 3.499 0 0 1 4.922.252l16.996 18.73c.63.694.95 1.591.902 2.527a3.473 3.473 0 0 1-1.155 2.421l-5.106 4.584a3.494 3.494 0 0 1-2.782.867"/></svg></svg><svg width="11" height="10" xmlns="http://www.w3.org/2000/svg" xmlns:xlink="http://www.w3.org/1999/xlink" xmlns:svgjs="http://svgjs.com/svgjs" viewBox="0.04 0 10.919 10" fill="#0e6c95" x="885" y="3584"><svg xmlns="http://www.w3.org/2000/svg" xmlns:xlink="http://www.w3.org/1999/xlink" width="11" height="10" viewBox="0.425 0.479 10.209 9.35"><path paint-order="stroke fill markers" fill-rule="evenodd" d="M1.263 9.83l-.838-.935L9.795.479l.839.934L1.263 9.83z"/></svg></svg><svg width="11" height="11" xmlns="http://www.w3.org/2000/svg" xmlns:xlink="http://www.w3.org/1999/xlink" xmlns:svgjs="http://svgjs.com/svgjs" viewBox="0 0.463 11 10.074" fill="#0e6c95" x="892" y="3591"><svg xmlns="http://www.w3.org/2000/svg" xmlns:xlink="http://www.w3.org/1999/xlink" width="11" height="11" viewBox="0.167 0.91 10.209 9.349"><path paint-order="stroke fill markers" fill-rule="evenodd" d="M1.005 10.26l-.838-.935L9.538.91l.838.934-9.37 8.415z"/></svg></svg><svg width="29" height="30" xmlns="http://www.w3.org/2000/svg" xmlns:xlink="http://www.w3.org/1999/xlink" xmlns:svgjs="http://svgjs.com/svgjs" viewBox="0.127 0 28.746 30" fill="#518abd" x="845" y="3540"><svg xmlns="http://www.w3.org/2000/svg" xmlns:xlink="http://www.w3.org/1999/xlink" width="29" height="30" viewBox="0.768 0.637 27.834 29.049"><path paint-order="stroke fill markers" fill-rule="evenodd" d="M18.508 28.745L1.512 10.015a2.867 2.867 0 0 1 .207-4.06L6.825 1.37a2.866 2.866 0 0 1 4.038.207l16.996 18.731a2.867 2.867 0 0 1-.208 4.06l-5.105 4.584a2.866 2.866 0 0 1-4.038-.207"/></svg></svg><svg width="30" height="31" xmlns="http://www.w3.org/2000/svg" xmlns:xlink="http://www.w3.org/1999/xlink" xmlns:svgjs="http://svgjs.com/svgjs" viewBox="0.121 0 29.758 31" fill="#0e6c95" x="845" y="3540"><svg xmlns="http://www.w3.org/2000/svg" xmlns:xlink="http://www.w3.org/1999/xlink" width="30" height="31" viewBox="0.14 0.009 29.09 30.304"><path paint-order="stroke fill markers" fill-rule="evenodd" d="M9.027 1.282a2.238 2.238 0 0 0-1.783.555L2.138 6.422c-.446.4-.709.952-.74 1.551-.03.6.175 1.175.578 1.62l16.997 18.73a2.235 2.235 0 0 0 3.154.162l5.105-4.585c.447-.4.71-.952.74-1.551.03-.6-.174-1.175-.578-1.62L10.398 2a2.237 2.237 0 0 0-1.371-.717m11.156 29.002a3.493 3.493 0 0 1-2.14-1.117L1.047 10.436a3.477 3.477 0 0 1-.902-2.527A3.472 3.472 0 0 1 1.3 5.489L6.406.902a3.492 3.492 0 0 1 4.922.252l16.996 18.731c.629.694.949 1.592.901 2.527a3.472 3.472 0 0 1-1.155 2.421l-5.105 4.585a3.49 3.49 0 0 1-2.782.865"/></svg></svg><svg width="11" height="11" xmlns="http://www.w3.org/2000/svg" xmlns:xlink="http://www.w3.org/1999/xlink" xmlns:svgjs="http://svgjs.com/svgjs" viewBox="0 0.463 11 10.074" fill="#0e6c95" x="851" y="3546"><svg xmlns="http://www.w3.org/2000/svg" xmlns:xlink="http://www.w3.org/1999/xlink" width="11" height="11" viewBox="0.263 0.829 10.209 9.349"><path paint-order="stroke fill markers" fill-rule="evenodd" d="M1.1 10.179l-.837-.934L9.633.829l.839.934L1.1 10.18z"/></svg></svg><svg width="11" height="10" xmlns="http://www.w3.org/2000/svg" xmlns:xlink="http://www.w3.org/1999/xlink" xmlns:svgjs="http://svgjs.com/svgjs" viewBox="0.04 0 10.92 10" fill="#0e6c95" x="858" y="3554"><svg xmlns="http://www.w3.org/2000/svg" xmlns:xlink="http://www.w3.org/1999/xlink" width="11" height="10" viewBox="0.005 0.261 10.209 9.348"><path paint-order="stroke fill markers" fill-rule="evenodd" d="M.843 9.61l-.838-.935L9.375.261l.839.933L.844 9.61z"/></svg></svg><svg width="57" height="62" xmlns="http://www.w3.org/2000/svg" xmlns:xlink="http://www.w3.org/1999/xlink" xmlns:svgjs="http://svgjs.com/svgjs" viewBox="0.289 0 56.422 62" fill="#0e6c95" x="848" y="3543"><svg xmlns="http://www.w3.org/2000/svg" xmlns:xlink="http://www.w3.org/1999/xlink" width="57" height="62" viewBox="0.797 0.251 55.94 61.47"><path paint-order="stroke fill markers" fill-rule="evenodd" d="M55.807 61.721L.797 1.095l.93-.844 55.01 60.627-.93.843z"/></svg></svg><svg width="12" height="11" xmlns="http://www.w3.org/2000/svg" xmlns:xlink="http://www.w3.org/1999/xlink" xmlns:svgjs="http://svgjs.com/svgjs" viewBox="0.262 0 11.476 11" fill="#4276a3" x="877" y="3563"><svg xmlns="http://www.w3.org/2000/svg" xmlns:xlink="http://www.w3.org/1999/xlink" width="12" height="11" viewBox="0.462 0.296 10.909 10.456"><path paint-order="stroke fill markers" fill-rule="evenodd" d="M2.052 10.48L.675 8.964a.818.818 0 0 1-.038-1.056L6.372.61A.828.828 0 0 1 7.634.567l3.524 3.884a.819.819 0 0 1-.173 1.245l-7.881 4.93a.828.828 0 0 1-1.052-.145"/></svg></svg><svg width="18" height="18" xmlns="http://www.w3.org/2000/svg" xmlns:xlink="http://www.w3.org/1999/xlink" xmlns:svgjs="http://svgjs.com/svgjs" viewBox="0 0.189 18 17.622" fill="#518abd" x="868" y="3565"><svg xmlns="http://www.w3.org/2000/svg" xmlns:xlink="http://www.w3.org/1999/xlink" width="18" height="18" viewBox="0.408 0.813 16.887 16.532"><path paint-order="stroke fill markers" fill-rule="evenodd" d="M4.282 16.093l-2.884-3.178a3.82 3.82 0 0 1 .277-5.408l6.366-5.716a3.819 3.819 0 0 1 5.38.275l2.883 3.178a3.82 3.82 0 0 1-.277 5.409l-6.365 5.715a3.82 3.82 0 0 1-5.38-.275"/></svg></svg><svg width="21" height="22" xmlns="http://www.w3.org/2000/svg" xmlns:xlink="http://www.w3.org/1999/xlink" xmlns:svgjs="http://svgjs.com/svgjs" viewBox="0.119 0 20.761 22" fill="#4276a3" x="856" y="3573"><svg xmlns="http://www.w3.org/2000/svg" xmlns:xlink="http://www.w3.org/1999/xlink" width="21" height="22" viewBox="0.565 0.402 19.501 20.665"><path paint-order="stroke fill markers" fill-rule="evenodd" d="M18.509 20.898c-1.117 1.002-5.988-2.555-10.88-7.946C2.74 7.562-.32 2.378.796 1.376 1.912.373 9.538-1.42 15.867 5.556c6.558 7.226 3.758 14.339 2.642 15.342"/></svg></svg><svg width="19" height="21" xmlns="http://www.w3.org/2000/svg" xmlns:xlink="http://www.w3.org/1999/xlink" xmlns:svgjs="http://svgjs.com/svgjs" viewBox="0 0.118 19 20.764" fill="#518abd" x="856" y="3574"><svg xmlns="http://www.w3.org/2000/svg" xmlns:xlink="http://www.w3.org/1999/xlink" width="19" height="21" viewBox="0.565 0.206 18.174 19.86"><path paint-order="stroke fill markers" fill-rule="evenodd" d="M18.509 19.898c-1.117 1.002-5.988-2.555-10.88-7.946C2.74 6.562-.32 1.378.796.376 1.912-.627 6.783 2.93 11.674 8.32c4.891 5.39 7.951 10.574 6.835 11.577"/></svg></svg><svg width="6" height="5" xmlns="http://www.w3.org/2000/svg" xmlns:xlink="http://www.w3.org/1999/xlink" xmlns:svgjs="http://svgjs.com/svgjs" viewBox="0.255 0 5.491 5" fill="#583e6e" x="861" y="3583"><svg xmlns="http://www.w3.org/2000/svg" xmlns:xlink="http://www.w3.org/1999/xlink" width="6" height="5" viewBox="0.399 0.353 5.089 4.634"><path paint-order="stroke fill markers" fill-rule="evenodd" d="M.673 4.985a.313.313 0 0 1-.17-.544L4.965.434a.314.314 0 0 1 .42.467L.922 4.907a.315.315 0 0 1-.25.078"/></svg></svg><svg width="3" height="4" xmlns="http://www.w3.org/2000/svg" xmlns:xlink="http://www.w3.org/1999/xlink" xmlns:svgjs="http://svgjs.com/svgjs" viewBox="0 0.508 3 2.984" fill="#583e6e" x="860" y="3586"><svg xmlns="http://www.w3.org/2000/svg" xmlns:xlink="http://www.w3.org/1999/xlink" width="3" height="4" viewBox="0.316 0.893 2.151 2.14"><path paint-order="stroke fill markers" fill-rule="evenodd" d="M.67 1.168a1.066 1.066 0 0 0-.076 1.51 1.08 1.08 0 0 0 1.519.08c.44-.396.474-1.073.076-1.512A1.08 1.08 0 0 0 .67 1.168"/></svg></svg><svg width="20" height="22" xmlns="http://www.w3.org/2000/svg" xmlns:xlink="http://www.w3.org/1999/xlink" xmlns:svgjs="http://svgjs.com/svgjs" viewBox="0 0.319 20 21.363" fill="#fefefe" x="847" y="3581"><svg xmlns="http://www.w3.org/2000/svg" xmlns:xlink="http://www.w3.org/1999/xlink" width="20" height="22" viewBox="0.187 0.663 19.598 20.933"><path paint-order="stroke fill markers" fill-rule="evenodd" d="M13.287 21.473a14.994 14.994 0 0 1-9.21-4.822C.204 12.383-.869 6.407 1.277 1.056a.627.627 0 1 1 1.165.466C.474 6.426 1.457 11.899 5.006 15.809 8.54 19.704 13.9 21.24 18.989 19.82a.628.628 0 1 1 .338 1.208c-2.01.562-4.061.7-6.04.445"/></svg></svg><svg width="17" height="18" xmlns="http://www.w3.org/2000/svg" xmlns:xlink="http://www.w3.org/1999/xlink" xmlns:svgjs="http://svgjs.com/svgjs" viewBox="0 0.125 17 17.75" fill="#fefefe" x="850" y="3582"><svg xmlns="http://www.w3.org/2000/svg" xmlns:xlink="http://www.w3.org/1999/xlink" width="17" height="18" viewBox="0.271 0.078 16.701 17.437"><path paint-order="stroke fill markers" fill-rule="evenodd" d="M10.729 17.416c-2.781-.358-5.421-1.674-7.366-3.817A11.814 11.814 0 0 1 1.476.43.627.627 0 0 1 2.605.98a10.565 10.565 0 0 0 1.687 11.775c2.957 3.26 7.71 4.381 11.826 2.793a.629.629 0 0 1 .452 1.17c-1.89.73-3.9.948-5.841.698"/></svg></svg><svg width="15" height="15" xmlns="http://www.w3.org/2000/svg" xmlns:xlink="http://www.w3.org/1999/xlink" xmlns:svgjs="http://svgjs.com/svgjs" viewBox="0.212 0 14.576 15" fill="#fefefe" x="853" y="3582"><svg xmlns="http://www.w3.org/2000/svg" xmlns:xlink="http://www.w3.org/1999/xlink" width="15" height="15" viewBox="0.349 0.371 13.687 14.085"><path paint-order="stroke fill markers" fill-rule="evenodd" d="M8.109 14.383a8.892 8.892 0 0 1-5.46-2.837C-.114 8.501-.42 4.017 1.906.642a.627.627 0 1 1 1.032.712 7.517 7.517 0 0 0 .64 9.349c2.416 2.662 6.416 3.277 9.513 1.463a.628.628 0 0 1 .634 1.083 8.862 8.862 0 0 1-5.616 1.134"/></svg></svg><svg width="29" height="30" xmlns="http://www.w3.org/2000/svg" xmlns:xlink="http://www.w3.org/1999/xlink" xmlns:svgjs="http://svgjs.com/svgjs" viewBox="0.127 0 28.746 30" fill="#518abd" x="88" y="3578"><svg xmlns="http://www.w3.org/2000/svg" xmlns:xlink="http://www.w3.org/1999/xlink" width="29" height="30" viewBox="0.706 0.287 27.834 29.049"><path paint-order="stroke fill markers" fill-rule="evenodd" d="M10.801 28.395l16.996-18.73a2.867 2.867 0 0 0-.208-4.06L22.483 1.02a2.867 2.867 0 0 0-4.037.207L1.449 19.958a2.867 2.867 0 0 0 .208 4.06l5.106 4.584a2.866 2.866 0 0 0 4.038-.207"/></svg></svg><svg width="30" height="31" xmlns="http://www.w3.org/2000/svg" xmlns:xlink="http://www.w3.org/1999/xlink" xmlns:svgjs="http://svgjs.com/svgjs" viewBox="0.121 0 29.758 31" fill="#0e6c95" x="88" y="3577"><svg xmlns="http://www.w3.org/2000/svg" xmlns:xlink="http://www.w3.org/1999/xlink" width="30" height="31" viewBox="0.078 0.66 29.089 30.303"><path paint-order="stroke fill markers" fill-rule="evenodd" d="M18.91 2.649L1.916 21.379A2.222 2.222 0 0 0 1.337 23c.03.6.293 1.15.74 1.551l5.106 4.585a2.236 2.236 0 0 0 3.154-.161l16.995-18.731c.404-.445.61-1.02.579-1.62a2.227 2.227 0 0 0-.74-1.55l-5.107-4.586a2.242 2.242 0 0 0-3.153.162M6.344 30.069l-5.106-4.585a3.473 3.473 0 0 1-1.155-2.42 3.474 3.474 0 0 1 .902-2.527L17.981 1.805a3.496 3.496 0 0 1 4.922-.251l5.105 4.584a3.469 3.469 0 0 1 1.155 2.421 3.47 3.47 0 0 1-.901 2.527L11.266 29.817a3.492 3.492 0 0 1-4.922.251"/></svg></svg><svg width="12" height="10" xmlns="http://www.w3.org/2000/svg" xmlns:xlink="http://www.w3.org/1999/xlink" xmlns:svgjs="http://svgjs.com/svgjs" viewBox="0.54 0 10.919 10" fill="#0e6c95" x="100" y="3584"><svg xmlns="http://www.w3.org/2000/svg" xmlns:xlink="http://www.w3.org/1999/xlink" width="12" height="10" viewBox="0.837 0.479 10.209 9.35"><path paint-order="stroke fill markers" fill-rule="evenodd" d="M10.208 9.83l.838-.935L1.676.479l-.839.934 9.371 8.416z"/></svg></svg><svg width="11" height="11" xmlns="http://www.w3.org/2000/svg" xmlns:xlink="http://www.w3.org/1999/xlink" xmlns:svgjs="http://svgjs.com/svgjs" viewBox="0 0.463 11 10.074" fill="#0e6c95" x="94" y="3591"><svg xmlns="http://www.w3.org/2000/svg" xmlns:xlink="http://www.w3.org/1999/xlink" width="11" height="11" viewBox="0.095 0.91 10.209 9.349"><path paint-order="stroke fill markers" fill-rule="evenodd" d="M9.466 10.26l.838-.935L.933.91l-.838.934 9.37 8.415z"/></svg></svg><svg width="29" height="30" xmlns="http://www.w3.org/2000/svg" xmlns:xlink="http://www.w3.org/1999/xlink" xmlns:svgjs="http://svgjs.com/svgjs" viewBox="0.127 0 28.745 30" fill="#518abd" x="122" y="3540"><svg xmlns="http://www.w3.org/2000/svg" xmlns:xlink="http://www.w3.org/1999/xlink" width="29" height="30" viewBox="0.868 0.637 27.834 29.049"><path paint-order="stroke fill markers" fill-rule="evenodd" d="M10.963 28.745l16.996-18.73a2.867 2.867 0 0 0-.207-4.06L22.646 1.37a2.866 2.866 0 0 0-4.038.207L1.612 20.308a2.867 2.867 0 0 0 .208 4.06l5.105 4.584a2.866 2.866 0 0 0 4.038-.207"/></svg></svg><svg width="30" height="31" xmlns="http://www.w3.org/2000/svg" xmlns:xlink="http://www.w3.org/1999/xlink" xmlns:svgjs="http://svgjs.com/svgjs" viewBox="0.121 0 29.758 31" fill="#0e6c95" x="122" y="3540"><svg xmlns="http://www.w3.org/2000/svg" xmlns:xlink="http://www.w3.org/1999/xlink" width="30" height="31" viewBox="0.241 0.009 29.089 30.304"><path paint-order="stroke fill markers" fill-rule="evenodd" d="M19.073 1.999L2.077 20.729a2.224 2.224 0 0 0-.578 1.62c.03.6.293 1.15.74 1.551l5.105 4.585a2.243 2.243 0 0 0 3.154-.161L27.494 9.593c.404-.445.609-1.02.578-1.62a2.224 2.224 0 0 0-.739-1.55l-5.106-4.586A2.241 2.241 0 0 0 19.073 2M6.506 29.419L1.4 24.834a3.473 3.473 0 0 1-1.155-2.42 3.474 3.474 0 0 1 .902-2.527L18.143 1.155a3.495 3.495 0 0 1 4.922-.252l5.105 4.585a3.467 3.467 0 0 1 1.155 2.421 3.472 3.472 0 0 1-.901 2.527l-16.996 18.73a3.497 3.497 0 0 1-4.922.253"/></svg></svg><svg width="12" height="11" xmlns="http://www.w3.org/2000/svg" xmlns:xlink="http://www.w3.org/1999/xlink" xmlns:svgjs="http://svgjs.com/svgjs" viewBox="0 0.005 12 10.99" fill="#0e6c95" x="134" y="3546"><svg xmlns="http://www.w3.org/2000/svg" xmlns:xlink="http://www.w3.org/1999/xlink" width="12" height="11" viewBox="0.999 0.829 10.209 9.349"><path paint-order="stroke fill markers" fill-rule="evenodd" d="M10.37 10.179l.838-.934L1.838.829l-.839.934 9.371 8.416z"/></svg></svg><svg width="11" height="10" xmlns="http://www.w3.org/2000/svg" xmlns:xlink="http://www.w3.org/1999/xlink" xmlns:svgjs="http://svgjs.com/svgjs" viewBox="0.04 0 10.92 10" fill="#0e6c95" x="128" y="3554"><svg xmlns="http://www.w3.org/2000/svg" xmlns:xlink="http://www.w3.org/1999/xlink" width="11" height="10" viewBox="0.257 0.261 10.209 9.348"><path paint-order="stroke fill markers" fill-rule="evenodd" d="M9.628 9.61l.838-.935L1.096.261l-.839.933 9.37 8.415z"/></svg></svg><svg width="57" height="62" xmlns="http://www.w3.org/2000/svg" xmlns:xlink="http://www.w3.org/1999/xlink" xmlns:svgjs="http://svgjs.com/svgjs" viewBox="0.289 0 56.422 62" fill="#0e6c95" x="91" y="3543"><svg xmlns="http://www.w3.org/2000/svg" xmlns:xlink="http://www.w3.org/1999/xlink" width="57" height="62" viewBox="0.734 0.251 55.94 61.47"><path paint-order="stroke fill markers" fill-rule="evenodd" d="M1.664 61.721l55.01-60.626-.929-.844L.735 60.878l.929.843z"/></svg></svg><svg width="12" height="11" xmlns="http://www.w3.org/2000/svg" xmlns:xlink="http://www.w3.org/1999/xlink" xmlns:svgjs="http://svgjs.com/svgjs" viewBox="0.262 0 11.476 11" fill="#4276a3" x="108" y="3563"><svg xmlns="http://www.w3.org/2000/svg" xmlns:xlink="http://www.w3.org/1999/xlink" width="12" height="11" viewBox="0.1 0.296 10.909 10.456"><path paint-order="stroke fill markers" fill-rule="evenodd" d="M9.42 10.48l1.376-1.517a.818.818 0 0 0 .038-1.056L5.1.61A.828.828 0 0 0 3.837.567L.314 4.451a.818.818 0 0 0 .172 1.245l7.881 4.93a.828.828 0 0 0 1.052-.145"/></svg></svg><svg width="18" height="18" xmlns="http://www.w3.org/2000/svg" xmlns:xlink="http://www.w3.org/1999/xlink" xmlns:svgjs="http://svgjs.com/svgjs" viewBox="0 0.189 18 17.622" fill="#518abd" x="111" y="3565"><svg xmlns="http://www.w3.org/2000/svg" xmlns:xlink="http://www.w3.org/1999/xlink" width="18" height="18" viewBox="0.176 0.813 16.887 16.532"><path paint-order="stroke fill markers" fill-rule="evenodd" d="M13.189 16.093l2.883-3.178a3.82 3.82 0 0 0-.277-5.408L9.43 1.791a3.82 3.82 0 0 0-5.38.275L1.167 5.244a3.82 3.82 0 0 0 .276 5.409l6.365 5.715a3.82 3.82 0 0 0 5.38-.275"/></svg></svg><svg width="20" height="22" xmlns="http://www.w3.org/2000/svg" xmlns:xlink="http://www.w3.org/1999/xlink" xmlns:svgjs="http://svgjs.com/svgjs" viewBox="0 0.403 20 21.194" fill="#4276a3" x="120" y="3573"><svg xmlns="http://www.w3.org/2000/svg" xmlns:xlink="http://www.w3.org/1999/xlink" width="20" height="22" viewBox="0.405 0.402 19.501 20.665"><path paint-order="stroke fill markers" fill-rule="evenodd" d="M1.962 20.898c1.117 1.002 5.988-2.555 10.88-7.946 4.89-5.39 7.95-10.574 6.834-11.576C18.559.373 10.933-1.42 4.604 5.556-1.954 12.781.846 19.894 1.962 20.897"/></svg></svg><svg width="19" height="21" xmlns="http://www.w3.org/2000/svg" xmlns:xlink="http://www.w3.org/1999/xlink" xmlns:svgjs="http://svgjs.com/svgjs" viewBox="0 0.118 19 20.764" fill="#518abd" x="121" y="3574"><svg xmlns="http://www.w3.org/2000/svg" xmlns:xlink="http://www.w3.org/1999/xlink" width="19" height="21" viewBox="0.732 0.206 18.173 19.86"><path paint-order="stroke fill markers" fill-rule="evenodd" d="M.962 19.898c1.117 1.002 5.988-2.555 10.88-7.946 4.89-5.39 7.95-10.574 6.834-11.576C17.559-.627 12.689 2.93 7.797 8.32 2.906 13.71-.154 18.895.962 19.898"/></svg></svg><svg width="7" height="5" xmlns="http://www.w3.org/2000/svg" xmlns:xlink="http://www.w3.org/1999/xlink" xmlns:svgjs="http://svgjs.com/svgjs" viewBox="0.755 0 5.491 5" fill="#583e6e" x="129" y="3583"><svg xmlns="http://www.w3.org/2000/svg" xmlns:xlink="http://www.w3.org/1999/xlink" width="7" height="5" viewBox="0.983 0.353 5.089 4.634"><path paint-order="stroke fill markers" fill-rule="evenodd" d="M5.798 4.985a.313.313 0 0 0 .17-.544L1.505.434a.313.313 0 1 0-.42.467l4.462 4.006a.315.315 0 0 0 .25.078"/></svg></svg><svg width="3" height="4" xmlns="http://www.w3.org/2000/svg" xmlns:xlink="http://www.w3.org/1999/xlink" xmlns:svgjs="http://svgjs.com/svgjs" viewBox="0 0.508 3 2.985" fill="#583e6e" x="134" y="3586"><svg xmlns="http://www.w3.org/2000/svg" xmlns:xlink="http://www.w3.org/1999/xlink" width="3" height="4" viewBox="0.004 0.893 2.151 2.14"><path paint-order="stroke fill markers" fill-rule="evenodd" d="M1.8 1.168c.44.396.475 1.072.077 1.51a1.08 1.08 0 0 1-1.519.08 1.066 1.066 0 0 1-.077-1.512 1.08 1.08 0 0 1 1.52-.078"/></svg></svg><svg width="21" height="22" xmlns="http://www.w3.org/2000/svg" xmlns:xlink="http://www.w3.org/1999/xlink" xmlns:svgjs="http://svgjs.com/svgjs" viewBox="0.202 0 20.596 22" fill="#fefefe" x="129" y="3581"><svg xmlns="http://www.w3.org/2000/svg" xmlns:xlink="http://www.w3.org/1999/xlink" width="21" height="22" viewBox="0.685 0.663 19.598 20.933"><path paint-order="stroke fill markers" fill-rule="evenodd" d="M7.184 21.473a14.994 14.994 0 0 0 9.21-4.822c3.873-4.268 4.946-10.244 2.8-15.595a.627.627 0 1 0-1.165.466c1.966 4.903.984 10.376-2.565 14.286-3.534 3.896-8.893 5.432-13.982 4.012a.627.627 0 0 0-.338 1.208c2.01.562 4.061.7 6.04.445"/></svg></svg><svg width="18" height="18" xmlns="http://www.w3.org/2000/svg" xmlns:xlink="http://www.w3.org/1999/xlink" xmlns:svgjs="http://svgjs.com/svgjs" viewBox="0.38 0 17.24 18" fill="#fefefe" x="129" y="3582"><svg xmlns="http://www.w3.org/2000/svg" xmlns:xlink="http://www.w3.org/1999/xlink" width="18" height="18" viewBox="0.499 0.078 16.701 17.437"><path paint-order="stroke fill markers" fill-rule="evenodd" d="M6.742 17.416c2.78-.358 5.42-1.674 7.366-3.817A11.814 11.814 0 0 0 15.994.43a.627.627 0 1 0-1.129.549 10.564 10.564 0 0 1-1.687 11.775c-2.957 3.26-7.71 4.381-11.825 2.793a.628.628 0 0 0-.453 1.17c1.89.73 3.9.948 5.842.698"/></svg></svg><svg width="15" height="15" xmlns="http://www.w3.org/2000/svg" xmlns:xlink="http://www.w3.org/1999/xlink" xmlns:svgjs="http://svgjs.com/svgjs" viewBox="0.212 0 14.576 15" fill="#fefefe" x="129" y="3582"><svg xmlns="http://www.w3.org/2000/svg" xmlns:xlink="http://www.w3.org/1999/xlink" width="15" height="15" viewBox="0.435 0.371 13.687 14.085"><path paint-order="stroke fill markers" fill-rule="evenodd" d="M6.362 14.383a8.893 8.893 0 0 0 5.46-2.837c2.763-3.045 3.068-7.529.743-10.904a.627.627 0 0 0-1.032.712 7.517 7.517 0 0 1-.64 9.349c-2.416 2.662-6.416 3.277-9.513 1.463a.628.628 0 0 0-.635 1.083 8.863 8.863 0 0 0 5.617 1.134"/></svg></svg><svg width="39" height="22" xmlns="http://www.w3.org/2000/svg" xmlns:xlink="http://www.w3.org/1999/xlink" xmlns:svgjs="http://svgjs.com/svgjs" viewBox="0 0.491 39 21.018" fill="#7ea9d1" x="740" y="3663"><svg xmlns="http://www.w3.org/2000/svg" xmlns:xlink="http://www.w3.org/1999/xlink" width="39" height="22" viewBox="0.618 0.81 38.322 20.652"><path paint-order="stroke fill markers" fill-rule="evenodd" d="M.618 11.136C.618 5.433 5.241.81 10.944.81c1.7 0 3.3.413 4.715 1.14 5.345 2.744 6.13 2.751 11.396 1.297a9.387 9.387 0 0 1 11.886 9.048c0 5.185-4.07 9.015-9.256 9.015-.795 0-2.35.086-2.436.086H12.096c-.38.042-.763.066-1.152.066-.393 0-.781-.023-1.16-.066h-.615v-.09c-4.857-.841-8.55-5.073-8.55-10.17"/></svg></svg><svg width="47" height="23" xmlns="http://www.w3.org/2000/svg" xmlns:xlink="http://www.w3.org/1999/xlink" xmlns:svgjs="http://svgjs.com/svgjs" viewBox="0 0.309 47 22.381" fill="#fefefe" x="716" y="3674"><svg xmlns="http://www.w3.org/2000/svg" xmlns:xlink="http://www.w3.org/1999/xlink" width="47" height="23" viewBox="0.205 0.136 45.918 21.866"><path paint-order="stroke fill markers" fill-rule="evenodd" d="M.205 14.443a7.55 7.55 0 0 1 7.55-7.55l.09.002c2.567.03 3.187-.036 5.58-2.875A10.9 10.9 0 0 1 21.782.136a10.89 10.89 0 0 1 7.797 3.276c1.776 1.81 1.994 1.87 3.74 2.355.042.01.08.021.119.033l.043.011a8.263 8.263 0 0 1 4.098 2.633c1.618 1.919 1.92 1.946 3.639 2.191a5.712 5.712 0 0 1 4.905 5.652c0 3-2.32 5.458-5.262 5.687a.528.528 0 0 1-.163.028H6.838c-.12 0-.391-.01-.477-.077-3.583-.59-6.156-3.734-6.156-7.482"/></svg></svg><svg width="40" height="22" xmlns="http://www.w3.org/2000/svg" xmlns:xlink="http://www.w3.org/1999/xlink" xmlns:svgjs="http://svgjs.com/svgjs" viewBox="0 0.222 40 21.556" fill="#7ea9d1" x="572" y="3629"><svg xmlns="http://www.w3.org/2000/svg" xmlns:xlink="http://www.w3.org/1999/xlink" width="40" height="22" viewBox="0.605 0.505 39.289 21.173"><path paint-order="stroke fill markers" fill-rule="evenodd" d="M39.893 11.091c0-5.847-4.74-10.586-10.586-10.586-1.743 0-3.384.424-4.834 1.17-5.479 2.813-6.286 2.82-11.682 1.329a9.647 9.647 0 0 0-2.562-.348c-5.317 0-9.624 4.31-9.624 9.625s4.173 9.241 9.488 9.241c.814 0 2.411.088 2.496.088h15.537c.387.043.78.068 1.181.068.402 0 .799-.024 1.189-.068h.63v-.09c4.981-.865 8.767-5.202 8.767-10.429"/></svg></svg><svg width="54" height="27" xmlns="http://www.w3.org/2000/svg" xmlns:xlink="http://www.w3.org/1999/xlink" xmlns:svgjs="http://svgjs.com/svgjs" viewBox="0 0.642 54 25.716" fill="#fefefe" x="585" y="3616"><svg xmlns="http://www.w3.org/2000/svg" xmlns:xlink="http://www.w3.org/1999/xlink" width="54" height="27" viewBox="0.342 0.861 53.103 25.289"><path paint-order="stroke fill markers" fill-rule="evenodd" d="M53.445 17.407a8.733 8.733 0 0 0-8.732-8.732c-.035 0-.07.003-.103.003-2.968.035-3.688-.043-6.456-3.325A12.608 12.608 0 0 0 28.492.86a12.597 12.597 0 0 0-9.019 3.788c-2.055 2.093-2.305 2.164-4.327 2.724l-.136.037-.049.014a9.536 9.536 0 0 0-4.74 3.044c-1.87 2.221-2.218 2.252-4.21 2.536a6.6 6.6 0 0 0 .413 13.114c.06.019.123.032.189.032h39.159c.141 0 .454-.01.556-.09 4.142-.682 7.117-4.318 7.117-8.653"/></svg></svg><svg width="40" height="22" xmlns="http://www.w3.org/2000/svg" xmlns:xlink="http://www.w3.org/1999/xlink" xmlns:svgjs="http://svgjs.com/svgjs" viewBox="0 0.222 40 21.556" fill="#7ea9d1" x="224" y="3653"><svg xmlns="http://www.w3.org/2000/svg" xmlns:xlink="http://www.w3.org/1999/xlink" width="40" height="22" viewBox="0.374 0.422 39.289 21.173"><path paint-order="stroke fill markers" fill-rule="evenodd" d="M39.664 11.008c0-5.847-4.74-10.586-10.587-10.586-1.743 0-3.384.423-4.834 1.169-5.479 2.813-6.286 2.82-11.682 1.33a9.644 9.644 0 0 0-2.563-.349c-5.316 0-9.624 4.31-9.624 9.625s4.173 9.242 9.489 9.242c.814 0 2.412.088 2.496.088h15.537c.388.043.781.068 1.181.068.403 0 .8-.024 1.189-.068h.63v-.091c4.98-.864 8.768-5.202 8.768-10.428"/></svg></svg><svg width="54" height="27" xmlns="http://www.w3.org/2000/svg" xmlns:xlink="http://www.w3.org/1999/xlink" xmlns:svgjs="http://svgjs.com/svgjs" viewBox="0 0.642 54 25.716" fill="#fefefe" x="237" y="3640"><svg xmlns="http://www.w3.org/2000/svg" width="54" height="27" viewBox="0.112 0.777 53.103 25.289"><path paint-order="stroke fill markers" fill-rule="evenodd" d="M53.215 17.323a8.732 8.732 0 0 0-8.732-8.731l-.103.002c-2.968.035-3.687-.043-6.456-3.325A12.606 12.606 0 0 0 28.262.777a12.596 12.596 0 0 0-9.019 3.788c-2.055 2.093-2.304 2.164-4.327 2.724l-.135.038-.05.013a9.536 9.536 0 0 0-4.74 3.045c-1.87 2.22-2.218 2.251-4.21 2.535a6.6 6.6 0 0 0 .413 13.114c.06.019.123.032.19.032h39.158c.142 0 .454-.01.556-.09 4.142-.682 7.117-4.317 7.117-8.653"/></svg></svg></svg>