<svg width="176" height="386" xmlns="http://www.w3.org/2000/svg" xmlns:xlink="http://www.w3.org/1999/xlink" xmlns:svgjs="http://svgjs.com/svgjs" viewBox="495 3656 176 386"><svg width="148" height="30" xmlns="http://www.w3.org/2000/svg" xmlns:xlink="http://www.w3.org/1999/xlink" xmlns:svgjs="http://svgjs.com/svgjs" viewBox="0 0.331 148 29.338" fill="#4276a3" x="495" y="4012"><svg xmlns="http://www.w3.org/2000/svg" xmlns:xlink="http://www.w3.org/1999/xlink" width="148" height="30" viewBox="0.079 0.034 147.781 29.295"><path paint-order="stroke fill markers" fill-rule="evenodd" d="M135.766 29.329H12.174C5.494 29.329.08 23.913.08 17.234v-5.106C.08 5.448 5.494.034 12.174.034h123.592c6.68 0 12.094 5.414 12.094 12.094v5.106c0 6.68-5.415 12.095-12.094 12.095"/></svg></svg><svg width="7" height="9" xmlns="http://www.w3.org/2000/svg" xmlns:xlink="http://www.w3.org/1999/xlink" xmlns:svgjs="http://svgjs.com/svgjs" viewBox="0.113 0 6.774 9" fill="#f0c9c0" x="643" y="3786"><svg xmlns="http://www.w3.org/2000/svg" xmlns:xlink="http://www.w3.org/1999/xlink" width="7" height="9" viewBox="0.234 0.016 6.17 8.199"><path paint-order="stroke fill markers" fill-rule="evenodd" d="M.234 7.748s2.408-2.753 3.32-5.165C4.463.171 5.516-.474 6.121.366c.605.84.342 4.32-1.805 6.11C2.171 8.269 1.03 8.643.234 7.749"/></svg></svg><svg width="9" height="11" xmlns="http://www.w3.org/2000/svg" xmlns:xlink="http://www.w3.org/1999/xlink" xmlns:svgjs="http://svgjs.com/svgjs" viewBox="0.361 0 8.279 11" fill="#f0c9c0" x="638" y="3785"><svg xmlns="http://www.w3.org/2000/svg" xmlns:xlink="http://www.w3.org/1999/xlink" width="9" height="11" viewBox="0.629 0.527 7.69 10.218"><path paint-order="stroke fill markers" fill-rule="evenodd" d="M.63 10.164s3-3.43 4.135-6.437C5.9.721 7.214-.083 7.967.964c.754 1.047.426 5.383-2.249 7.616C3.043 10.812 1.62 11.278.63 10.164"/></svg></svg><svg width="9" height="23" xmlns="http://www.w3.org/2000/svg" xmlns:xlink="http://www.w3.org/1999/xlink" xmlns:svgjs="http://svgjs.com/svgjs" viewBox="0.563 0 7.874 23" fill="#9a313b" x="586" y="4004"><svg xmlns="http://www.w3.org/2000/svg" xmlns:xlink="http://www.w3.org/1999/xlink" width="9" height="23" viewBox="0.893 0.089 7.717 22.541"><path paint-order="stroke fill markers" fill-rule="evenodd" d="M8.61.089L.893 2.322S4.55 19.38 4.752 22.63H8.61V5.977.09z"/></svg></svg><svg width="36" height="40" xmlns="http://www.w3.org/2000/svg" xmlns:xlink="http://www.w3.org/1999/xlink" xmlns:svgjs="http://svgjs.com/svgjs" viewBox="0.788 0 34.424 40" fill="#bf3d4b" x="586" y="3988"><svg xmlns="http://www.w3.org/2000/svg" xmlns:xlink="http://www.w3.org/1999/xlink" width="36" height="40" viewBox="0.756 0.046 34.254 39.803"><path paint-order="stroke fill markers" fill-rule="evenodd" d="M3.127 6.341S.081 15.683.893 18.322c.763 2.477 12.25 6.92 19.369 19.032.899 1.53 2.52 2.494 4.294 2.494h7.16a3.294 3.294 0 0 0 3.293-3.293 2.392 2.392 0 0 0-2.392-2.393h-.306a5.11 5.11 0 0 1-4.705-3.107C24.722 24.294 17.823 8.527 14.5 4.457V.046L2.315 1.265l.812 5.076z"/></svg></svg><svg width="48" height="161" xmlns="http://www.w3.org/2000/svg" xmlns:xlink="http://www.w3.org/1999/xlink" xmlns:svgjs="http://svgjs.com/svgjs" viewBox="0.396 0 47.208 161" fill="#215589" x="558" y="3833"><svg xmlns="http://www.w3.org/2000/svg" xmlns:xlink="http://www.w3.org/1999/xlink" width="48" height="161" viewBox="0.35 0.65 46.752 159.444"><path paint-order="stroke fill markers" fill-rule="evenodd" d="M47.101 155.414l-19.127 4.68-1.057-4.356c-5.735-26.832-8.303-59.184-8.303-59.184L.35 56.618l7.163-32.916L12.53.65l25.405 82.092 2.928 9.457v5.387l6.24 57.828z"/></svg></svg><svg width="27" height="12" xmlns="http://www.w3.org/2000/svg" xmlns:xlink="http://www.w3.org/1999/xlink" xmlns:svgjs="http://svgjs.com/svgjs" viewBox="0 0.011 27 11.979" fill="#154572" x="581" y="3986"><svg xmlns="http://www.w3.org/2000/svg" xmlns:xlink="http://www.w3.org/1999/xlink" width="27" height="12" viewBox="0.426 0.309 25.858 11.472"><path paint-order="stroke fill markers" fill-rule="evenodd" d="M.53 11.78l25.755-1.17V.309S8.725 1.479.53 2.416c-.235 2.809 0 9.365 0 9.365"/></svg></svg><svg width="31" height="83" xmlns="http://www.w3.org/2000/svg" xmlns:xlink="http://www.w3.org/1999/xlink" xmlns:svgjs="http://svgjs.com/svgjs" viewBox="0.122 0 30.757 83" fill="#74b3db" x="565" y="3833"><svg xmlns="http://www.w3.org/2000/svg" xmlns:xlink="http://www.w3.org/1999/xlink" width="31" height="83" viewBox="0.514 0.65 30.42 82.093"><path paint-order="stroke fill markers" fill-rule="evenodd" d="M30.934 82.743L.514 23.703 5.53.65l25.404 82.093z"/></svg></svg><svg width="9" height="23" xmlns="http://www.w3.org/2000/svg" xmlns:xlink="http://www.w3.org/1999/xlink" xmlns:svgjs="http://svgjs.com/svgjs" viewBox="0.563 0 7.874 23" fill="#9a313b" x="528" y="4011"><svg xmlns="http://www.w3.org/2000/svg" xmlns:xlink="http://www.w3.org/1999/xlink" width="9" height="23" viewBox="0.929 0.131 7.717 22.541"><path paint-order="stroke fill markers" fill-rule="evenodd" d="M8.646.13L.93 2.366s3.656 17.058 3.859 20.307h3.858V6.02.13z"/></svg></svg><svg width="36" height="40" xmlns="http://www.w3.org/2000/svg" xmlns:xlink="http://www.w3.org/1999/xlink" xmlns:svgjs="http://svgjs.com/svgjs" viewBox="0.788 0 34.424 40" fill="#bf3d4b" x="528" y="3995"><svg xmlns="http://www.w3.org/2000/svg" xmlns:xlink="http://www.w3.org/1999/xlink" width="36" height="40" viewBox="0.792 0.088 34.254 39.802"><path paint-order="stroke fill markers" fill-rule="evenodd" d="M3.163 6.384S.117 15.724.93 18.364c.762 2.477 12.249 6.92 19.368 19.032.899 1.53 2.52 2.494 4.294 2.494h7.16a3.294 3.294 0 0 0 3.294-3.293 2.392 2.392 0 0 0-2.393-2.393h-.306c-2.05 0-3.9-1.22-4.705-3.106C24.758 24.337 17.86 8.57 14.535 4.499V.09L2.351 1.306l.812 5.077z"/></svg></svg><svg width="43" height="179" xmlns="http://www.w3.org/2000/svg" xmlns:xlink="http://www.w3.org/1999/xlink" xmlns:svgjs="http://svgjs.com/svgjs" viewBox="0.346 0 42.307 179" fill="#3a77b7" x="526" y="3823"><svg xmlns="http://www.w3.org/2000/svg" xmlns:xlink="http://www.w3.org/1999/xlink" width="43" height="179" viewBox="0.681 0.979 42.013 177.756"><path paint-order="stroke fill markers" fill-rule="evenodd" d="M42.694 12.33l-.492 3.54-12.696 90.66s0 .012-.012.024c-.036.073-.18.312-.384.732-1.08 2.232-4.177 9.445-5.112 21.253-1.176 14.436 0 50.195 0 50.195H2.086s-.649-4.464-.696-26.484c-.024-21.996 4.848-43.655 4.848-43.655S4.87 74.899 4.174 49.122c-4.44-14.556-3.949-26.544-2.34-34.92C3.466 5.754 6.238.98 6.238.98l36.456 11.35z"/></svg></svg><svg width="20" height="73" xmlns="http://www.w3.org/2000/svg" xmlns:xlink="http://www.w3.org/1999/xlink" xmlns:svgjs="http://svgjs.com/svgjs" viewBox="0.316 0 19.368 73" fill="#74b3db" x="536" y="3929"><svg xmlns="http://www.w3.org/2000/svg" xmlns:xlink="http://www.w3.org/1999/xlink" width="20" height="73" viewBox="0.344 0.553 19.149 72.175"><path paint-order="stroke fill markers" fill-rule="evenodd" d="M13.994 22.538c-1.172 14.435 0 50.19 0 50.19H.344c.107-2.73.24-5.712.373-8.935C2.395 23.683 18.84 1.405 19.493.553c-.253.452-4.381 7.99-5.5 21.985"/></svg></svg><svg width="26" height="13" xmlns="http://www.w3.org/2000/svg" xmlns:xlink="http://www.w3.org/1999/xlink" xmlns:svgjs="http://svgjs.com/svgjs" viewBox="0 0.455 26 12.089" fill="#215589" x="526" y="3993"><svg xmlns="http://www.w3.org/2000/svg" xmlns:xlink="http://www.w3.org/1999/xlink" width="26" height="13" viewBox="0.48 0.501 25.316 11.771"><path paint-order="stroke fill markers" fill-rule="evenodd" d="M.68 2.674s-.767 7.726.702 9.599h24.414V.8S7.874-.604.68 2.674"/></svg></svg><svg width="40" height="165" xmlns="http://www.w3.org/2000/svg" xmlns:xlink="http://www.w3.org/1999/xlink" xmlns:svgjs="http://svgjs.com/svgjs" viewBox="0.294 0 39.413 165" fill="#215589" x="526" y="3837"><svg xmlns="http://www.w3.org/2000/svg" xmlns:xlink="http://www.w3.org/1999/xlink" width="40" height="165" viewBox="0.681 0.202 39.301 164.532"><path paint-order="stroke fill markers" fill-rule="evenodd" d="M14.638 98.146s-15.108 41.58-10.056 62.64c.384 1.608.648 2.916.78 3.948H2.086s-.648-4.464-.696-26.484c-.024-21.996 4.848-43.656 4.848-43.656S4.87 60.898 4.174 35.122C-.266 20.566.226 8.578 1.834.202L37.318 3.67l2.664 10.884-34.104 1.872S10.33 31.21 10.342 35.05c.012 3.828 4.296 63.096 4.296 63.096"/></svg></svg><svg width="14" height="93" xmlns="http://www.w3.org/2000/svg" xmlns:xlink="http://www.w3.org/1999/xlink" xmlns:svgjs="http://svgjs.com/svgjs" viewBox="0.341 0 13.319 93" fill="#74b3db" x="555" y="3838"><svg xmlns="http://www.w3.org/2000/svg" xmlns:xlink="http://www.w3.org/1999/xlink" width="14" height="93" viewBox="0.11 0.871 13.092 91.416"><path paint-order="stroke fill markers" fill-rule="evenodd" d="M13.202.87L.506 91.53s0 .012-.012.024c-.036.073-.18.312-.384.732l.396-81.468L13.202.871z"/></svg></svg><svg width="68" height="73" xmlns="http://www.w3.org/2000/svg" xmlns:xlink="http://www.w3.org/1999/xlink" xmlns:svgjs="http://svgjs.com/svgjs" viewBox="0 0.096 68 72.808" fill="#3c3437" x="513" y="3656"><svg xmlns="http://www.w3.org/2000/svg" xmlns:xlink="http://www.w3.org/1999/xlink" width="68" height="73" viewBox="0.91 0.508 66.868 71.595"><path paint-order="stroke fill markers" fill-rule="evenodd" d="M60.722 64.073c-4.593 8.264-25.75 9.364-24.115 6.819 0 0-1.41-7.326-9.533-5.694-.552.132-1.08.252-1.608.36-13.056 2.616-22.56-2.736-24.384-11.976-1.896-9.6 12.516-15.864 12.888-25.332.336-8.256 1.812-22.056 11.448-26.352C26.846 1.25 28.454.818 30.266.65c8.172-.768 17.952 1.608 25.44 6.444l.024.024c5.352 3.444 9.54 8.16 11.124 13.884 3.78 13.704-5.136 20.208-7.02 24.756-1.848 4.416 4.789 11.295.888 18.315"/></svg></svg><svg width="13" height="56" xmlns="http://www.w3.org/2000/svg" xmlns:xlink="http://www.w3.org/1999/xlink" xmlns:svgjs="http://svgjs.com/svgjs" viewBox="0.416 0 12.167 56" fill="#4d4449" x="568" y="3663"><svg xmlns="http://www.w3.org/2000/svg" xmlns:xlink="http://www.w3.org/1999/xlink" width="13" height="56" viewBox="0.729 0.118 12.048 55.452"><path paint-order="stroke fill markers" fill-rule="evenodd" d="M4.258 55.57c.06-1.992-.336-4.668-1.596-8.232-4.14-11.736 4.752-14.508 5.952-26.712C9.766 8.782 1.234.586.729.118c5.353 3.444 9.54 8.16 11.124 13.884 3.78 13.704-5.135 20.208-7.02 24.757-1.847 4.415 5.629 11.712-.575 16.811"/></svg></svg><svg width="44" height="21" xmlns="http://www.w3.org/2000/svg" xmlns:xlink="http://www.w3.org/1999/xlink" xmlns:svgjs="http://svgjs.com/svgjs" viewBox="0 0.284 44 20.431" fill="#f0c9c0" x="620" y="3784"><svg xmlns="http://www.w3.org/2000/svg" xmlns:xlink="http://www.w3.org/1999/xlink" width="44" height="21" viewBox="0.164 0.06 43.248 20.082"><path paint-order="stroke fill markers" fill-rule="evenodd" d="M10.82.06S9.566 2.112 7.83 5.27C6.092 8.426.163 11.832.163 11.832l4.567 8.31s8.574-5.401 12.019-6.066c3.445-.665 15.287-.468 19.737-2.119 7.392-2.741 6.919-7.93 6.919-7.93l-16-1.474L10.822.06z"/></svg></svg><svg width="12" height="16" xmlns="http://www.w3.org/2000/svg" xmlns:xlink="http://www.w3.org/1999/xlink" xmlns:svgjs="http://svgjs.com/svgjs" viewBox="0.292 0 11.416 16" fill="#7fc6ce" x="615" y="3793"><svg xmlns="http://www.w3.org/2000/svg" xmlns:xlink="http://www.w3.org/1999/xlink" width="12" height="16" viewBox="0.619 0.216 10.663 14.945"><path paint-order="stroke fill markers" fill-rule="evenodd" d="M.62 2.488L5.775.216s4.283 5.769 5.507 12.586c-5.857 2.797-7.005 2.33-7.005 2.33L.619 2.488z"/></svg></svg><svg width="74" height="96" xmlns="http://www.w3.org/2000/svg" xmlns:xlink="http://www.w3.org/1999/xlink" xmlns:svgjs="http://svgjs.com/svgjs" viewBox="0.445 0 73.109 96" fill="#9a313b" x="549" y="3731"><svg xmlns="http://www.w3.org/2000/svg" xmlns:xlink="http://www.w3.org/1999/xlink" width="74" height="96" viewBox="0.99 0.695 72.459 95.146"><path paint-order="stroke fill markers" fill-rule="evenodd" d="M14.014.695s14.744 21.242 22.214 52.198C41.34 68.91 41.536 70.97 41.536 70.97l25.752-7.983s4.588 7.819 6.161 14.787C63.227 84.655 18.2 95.841 18.2 95.841L.99 14.594 14.014.695z"/></svg></svg><svg width="6" height="11" xmlns="http://www.w3.org/2000/svg" xmlns:xlink="http://www.w3.org/1999/xlink" xmlns:svgjs="http://svgjs.com/svgjs" viewBox="0.068 0 5.863 11" fill="#f0c9c0" x="650" y="3786"><svg xmlns="http://www.w3.org/2000/svg" xmlns:xlink="http://www.w3.org/1999/xlink" width="6" height="11" viewBox="0.698 0.686 5.212 9.778"><path paint-order="stroke fill markers" fill-rule="evenodd" d="M.698 10.174s1.87-3.5 2.24-6.272C3.31 1.129 4.267.189 5.112.929c.845.74 1.42 4.48-.41 6.9-1.828 2.42-2.944 3.095-4.003 2.345"/></svg></svg><svg width="42" height="70" xmlns="http://www.w3.org/2000/svg" xmlns:xlink="http://www.w3.org/1999/xlink" xmlns:svgjs="http://svgjs.com/svgjs" viewBox="0.269 0 41.461 70" fill="#240003" x="513" y="3657"><svg xmlns="http://www.w3.org/2000/svg" xmlns:xlink="http://www.w3.org/1999/xlink" width="42" height="70" viewBox="0.908 0.543 40.644 68.62"><path paint-order="stroke fill markers" fill-rule="evenodd" d="M41.454 9.891c-7.177 11.918-14.768 11.665-16.153 13.01-1.384 1.332-3.821 8.297-2.69 12.185 1.146 3.888 7.605 16.885 7.605 16.885l-2.58 16.75c-13.05 2.624-24.733-6.895-26.557-16.137-1.891-9.601 12.518-15.86 12.89-25.328.333-8.257 1.81-22.066 11.452-26.354 7.085-.945 17.232-.665 16.033 8.99"/></svg></svg><svg width="21" height="19" xmlns="http://www.w3.org/2000/svg" xmlns:xlink="http://www.w3.org/1999/xlink" xmlns:svgjs="http://svgjs.com/svgjs" viewBox="0 0.246 21 18.509" fill="#215589" x="539" y="3842"><svg xmlns="http://www.w3.org/2000/svg" xmlns:xlink="http://www.w3.org/1999/xlink" width="21" height="19" viewBox="0.465 0.545 20.286 17.879"><path paint-order="stroke fill markers" fill-rule="evenodd" d="M20.75.545L.465 18.424S13.874 13.61 20.75.544"/></svg></svg><svg width="6" height="6" xmlns="http://www.w3.org/2000/svg" xmlns:xlink="http://www.w3.org/1999/xlink" xmlns:svgjs="http://svgjs.com/svgjs" viewBox="0 0.613 6 4.774" fill="#dcab9c" x="627" y="3772"><svg xmlns="http://www.w3.org/2000/svg" xmlns:xlink="http://www.w3.org/1999/xlink" width="6" height="6" viewBox="0.392 0.876 5.274 4.197"><path paint-order="stroke fill markers" fill-rule="evenodd" d="M4.268.876l1.399 1.981s-3.381 2.216-4.43 2.216c-1.05 0-1.2-1.36 0-2.099 1.2-.74 3.03-2.098 3.03-2.098"/></svg></svg><svg width="32" height="69" xmlns="http://www.w3.org/2000/svg" xmlns:xlink="http://www.w3.org/1999/xlink" xmlns:svgjs="http://svgjs.com/svgjs" viewBox="0.12 0 31.761 69" fill="#2a9a9f" x="546" y="3717"><svg xmlns="http://www.w3.org/2000/svg" xmlns:xlink="http://www.w3.org/1999/xlink" width="32" height="69" viewBox="0.59 0.855 31.201 67.784"><path paint-order="stroke fill markers" fill-rule="evenodd" d="M5.712.855L21.014 5.22l-2.932 11.004s15.67 21.324 13.503 51.107l-2.166 1.31-1.549-15.963L2.258 14.555.59 6.812 5.712.855z"/></svg></svg><svg width="22" height="33" xmlns="http://www.w3.org/2000/svg" xmlns:xlink="http://www.w3.org/1999/xlink" xmlns:svgjs="http://svgjs.com/svgjs" viewBox="0 0.435 22 32.13" fill="#e5b8ae" x="536" y="3693"><svg xmlns="http://www.w3.org/2000/svg" xmlns:xlink="http://www.w3.org/1999/xlink" width="22" height="33" viewBox="0.251 0.724 21.719 31.72"><path paint-order="stroke fill markers" fill-rule="evenodd" d="M21.97 15.971s-1.331 2.49-2.663 5.886c-1.239 3.183-2.464 7.151-2.557 10.587C4.432 31.87.251 29.607.251 29.607L2.01 18.461 4.805.724 21.97 15.97z"/></svg></svg><svg width="43" height="67" xmlns="http://www.w3.org/2000/svg" xmlns:xlink="http://www.w3.org/1999/xlink" xmlns:svgjs="http://svgjs.com/svgjs" viewBox="0.192 0 42.617 67" fill="#7fc6ce" x="534" y="3717"><svg xmlns="http://www.w3.org/2000/svg" xmlns:xlink="http://www.w3.org/1999/xlink" width="43" height="67" viewBox="0.56 0.14 41.903 65.877"><path paint-order="stroke fill markers" fill-rule="evenodd" d="M42.254 66.017C24.383 32.42.56 11.94.56 11.94l.053-.387L2.251.14l24.262 7.511-.705 13.104s18.83 24.062 16.446 45.262"/></svg></svg><svg width="27" height="25" xmlns="http://www.w3.org/2000/svg" xmlns:xlink="http://www.w3.org/1999/xlink" xmlns:svgjs="http://svgjs.com/svgjs" viewBox="0.112 0 26.775 25" fill="#bce0e4" x="534" y="3717"><svg xmlns="http://www.w3.org/2000/svg" xmlns:xlink="http://www.w3.org/1999/xlink" width="27" height="25" viewBox="0.613 0.14 25.901 24.183"><path paint-order="stroke fill markers" fill-rule="evenodd" d="M26.514 7.651l-7.378 16.673L.613 11.552 2.251.14l24.263 7.511z"/></svg></svg><svg width="56" height="127" xmlns="http://www.w3.org/2000/svg" xmlns:xlink="http://www.w3.org/1999/xlink" xmlns:svgjs="http://svgjs.com/svgjs" viewBox="0.359 0 55.282 127" fill="#e1515e" x="521" y="3725"><svg xmlns="http://www.w3.org/2000/svg" xmlns:xlink="http://www.w3.org/1999/xlink" width="56" height="127" viewBox="0.702 0.446 54.91 126.145"><path paint-order="stroke fill markers" fill-rule="evenodd" d="M50.934 122.066a5.397 5.397 0 0 1-5.952 4.488c-7.056-.828-20.088-2.496-30.408-4.632v-.012c-6.288-1.296-11.568-2.784-13.872-4.368.888-14.868 11.184-29.531 12.312-39.972C14.142 67.142 1.23 44.462.726 29.378.066 9.243 14.058.446 14.058.446s5.28 4.776 12.036 11.928l.012.024c10.272 10.896 23.916 27.3 27.528 40.812 4.86 18.144-.492 55.344-2.7 68.856"/></svg></svg><svg width="20" height="23" xmlns="http://www.w3.org/2000/svg" xmlns:xlink="http://www.w3.org/1999/xlink" xmlns:svgjs="http://svgjs.com/svgjs" viewBox="0 0.839 20 21.321" fill="#dfa499" x="538" y="3693"><svg xmlns="http://www.w3.org/2000/svg" xmlns:xlink="http://www.w3.org/1999/xlink" width="20" height="23" viewBox="0.009 0.724 19.962 21.28"><path paint-order="stroke fill markers" fill-rule="evenodd" d="M19.97 15.971s-1.331 2.49-2.663 5.886c-4.395.4-11.306.2-17.298-3.396L2.805.724 19.97 15.97z"/></svg></svg><svg width="10" height="16" xmlns="http://www.w3.org/2000/svg" xmlns:xlink="http://www.w3.org/1999/xlink" xmlns:svgjs="http://svgjs.com/svgjs" viewBox="0.226 0 9.549 16" fill="#e5b8ae" x="531" y="3685"><svg xmlns="http://www.w3.org/2000/svg" xmlns:xlink="http://www.w3.org/1999/xlink" width="10" height="16" viewBox="0.878 0.459 8.758 14.675"><path paint-order="stroke fill markers" fill-rule="evenodd" d="M9.606 1.558s-2.274-2.1-6.823-.496c-4.548 1.604-.378 14.57 6.444 14.056.568-9.231.379-13.56.379-13.56"/></svg></svg><svg width="38" height="44" xmlns="http://www.w3.org/2000/svg" xmlns:xlink="http://www.w3.org/1999/xlink" xmlns:svgjs="http://svgjs.com/svgjs" viewBox="0.408 0 37.184 44" fill="#eecdc5" x="537" y="3668"><svg xmlns="http://www.w3.org/2000/svg" xmlns:xlink="http://www.w3.org/1999/xlink" width="38" height="44" viewBox="0.928 0.024 36.61 43.32"><path paint-order="stroke fill markers" fill-rule="evenodd" d="M37.466 12.686c-.42 1.008-2.772 6.72-2.772 9.132 0 2.652 1.896 8.256-2.268 14.076-1.62 2.256-2.892 4.056-4.356 5.328-2.304 2.016-5.088 2.676-10.428 1.632-1.8-.348-3.6-.936-5.304-1.788C5.738 37.826.374 30.578.974 16.802c.18-4.344.563-7.56 1.032-9.948C3.374-.298 5.51.026 5.51.026l22.74 1.452 9.288 11.052s-.024.048-.072.156"/></svg></svg><svg width="5" height="5" xmlns="http://www.w3.org/2000/svg" xmlns:xlink="http://www.w3.org/1999/xlink" xmlns:svgjs="http://svgjs.com/svgjs" viewBox="0 0.136 5 4.728" fill="#215589" x="554" y="3686"><svg xmlns="http://www.w3.org/2000/svg" xmlns:xlink="http://www.w3.org/1999/xlink" width="5" height="5" viewBox="0.449 0.131 4.359 4.122"><path paint-order="stroke fill markers" fill-rule="evenodd" d="M4.809 2.192c0 1.138-.977 2.061-2.18 2.061-1.204 0-2.18-.923-2.18-2.06C.45 1.053 1.425.13 2.63.13c1.203 0 2.18.923 2.18 2.061"/></svg></svg><svg width="6" height="10" xmlns="http://www.w3.org/2000/svg" xmlns:xlink="http://www.w3.org/1999/xlink" xmlns:svgjs="http://svgjs.com/svgjs" viewBox="0.281 0 5.437 10" fill="#e5b8ae" x="562" y="3689"><svg xmlns="http://www.w3.org/2000/svg" xmlns:xlink="http://www.w3.org/1999/xlink" width="6" height="10" viewBox="0.231 0.972 4.783 8.797"><path paint-order="stroke fill markers" fill-rule="evenodd" d="M4.367 1.363l.638 6.458A1.774 1.774 0 0 1 3.24 9.769H.664a.432.432 0 0 1-.4-.597L3.537 1.24c.172-.416.786-.325.83.123"/></svg></svg><svg width="13" height="7" xmlns="http://www.w3.org/2000/svg" xmlns:xlink="http://www.w3.org/1999/xlink" xmlns:svgjs="http://svgjs.com/svgjs" viewBox="0 0.292 13 6.416" fill="#fefefe" x="555" y="3698"><svg xmlns="http://www.w3.org/2000/svg" xmlns:xlink="http://www.w3.org/1999/xlink" width="13" height="7" viewBox="0.084 0.769 12.116 5.979"><path paint-order="stroke fill markers" fill-rule="evenodd" d="M12.2 4.56l-4.536-.798L.084.769s1.026 4.308 4.358 5.36c6.43 2.027 7.758-1.57 7.758-1.57"/></svg></svg><svg width="8" height="7" xmlns="http://www.w3.org/2000/svg" xmlns:xlink="http://www.w3.org/1999/xlink" xmlns:svgjs="http://svgjs.com/svgjs" viewBox="0 0.361 8 6.279" fill="#3c3437" x="556" y="3679"><svg xmlns="http://www.w3.org/2000/svg" xmlns:xlink="http://www.w3.org/1999/xlink" width="8" height="7" viewBox="0.227 0.895 7.089 5.564"><path paint-order="stroke fill markers" fill-rule="evenodd" d="M.227.895s5.955.88 7.089 5.564C2.456 2.88.226.895.226.895"/></svg></svg><svg width="15" height="36" xmlns="http://www.w3.org/2000/svg" xmlns:xlink="http://www.w3.org/1999/xlink" xmlns:svgjs="http://svgjs.com/svgjs" viewBox="0.474 0 14.051 36" fill="#f0c9c0" x="537" y="3674"><svg xmlns="http://www.w3.org/2000/svg" xmlns:xlink="http://www.w3.org/1999/xlink" width="15" height="36" viewBox="0.923 0.855 13.353 34.21"><path paint-order="stroke fill markers" fill-rule="evenodd" d="M12.34 35.065C5.737 31.828.37 24.585.97 10.802c.186-4.341.572-7.564 1.038-9.947l6.486 2.503s9.84 13.01 3.848 31.707"/></svg></svg><svg width="10" height="30" xmlns="http://www.w3.org/2000/svg" xmlns:xlink="http://www.w3.org/1999/xlink" xmlns:svgjs="http://svgjs.com/svgjs" viewBox="0.061 0 9.878 30" fill="#f5e3de" x="565" y="3680"><svg xmlns="http://www.w3.org/2000/svg" xmlns:xlink="http://www.w3.org/1999/xlink" width="10" height="30" viewBox="0.07 0.687 9.396 28.536"><path paint-order="stroke fill markers" fill-rule="evenodd" d="M6.694 9.818c0 2.653 1.896 8.256-2.268 14.076-1.62 2.257-2.892 4.056-4.356 5.328.804-1.116 1.692-2.543 2.628-4.344 3.588-6.936 1.236-9.491.504-14.903C2.458 4.563 8.614 1.01 8.614 1.01l.852-.323c-.42 1.007-2.772 6.719-2.772 9.131"/></svg></svg><svg width="4" height="4" xmlns="http://www.w3.org/2000/svg" xmlns:xlink="http://www.w3.org/1999/xlink" xmlns:svgjs="http://svgjs.com/svgjs" viewBox="0 0.109 4 3.782" fill="#215589" x="568" y="3689"><svg xmlns="http://www.w3.org/2000/svg" xmlns:xlink="http://www.w3.org/1999/xlink" width="4" height="4" viewBox="0.197 0.374 2.864 2.708"><path paint-order="stroke fill markers" fill-rule="evenodd" d="M3.061 1.728c0 .748-.64 1.354-1.432 1.354-.79 0-1.432-.606-1.432-1.354C.197.98.84.374 1.63.374c.791 0 1.432.606 1.432 1.354"/></svg></svg><svg width="7" height="3" xmlns="http://www.w3.org/2000/svg" xmlns:xlink="http://www.w3.org/1999/xlink" xmlns:svgjs="http://svgjs.com/svgjs" viewBox="0 0.812 7 1.375" fill="#3c3437" x="568" y="3684"><svg xmlns="http://www.w3.org/2000/svg" xmlns:xlink="http://www.w3.org/1999/xlink" width="7" height="3" viewBox="0.198 0.885 6.34 1.246"><path paint-order="stroke fill markers" fill-rule="evenodd" d="M.198 2.131S3.99-.147 6.538 1.46c-4.036.672-6.34.672-6.34.672"/></svg></svg><svg width="27" height="122" xmlns="http://www.w3.org/2000/svg" xmlns:xlink="http://www.w3.org/1999/xlink" xmlns:svgjs="http://svgjs.com/svgjs" viewBox="0.742 0 25.516 122" fill="#bf3d4b" x="521" y="3725"><svg xmlns="http://www.w3.org/2000/svg" xmlns:xlink="http://www.w3.org/1999/xlink" width="27" height="122" viewBox="0.702 0.447 25.404 121.464"><path paint-order="stroke fill markers" fill-rule="evenodd" d="M9.426 34.418c3.84 17.46 14.615 31.14 13.932 49.044-.492 12.9-6.036 24.396-8.784 38.449-6.288-1.297-11.568-2.785-13.872-4.368.888-14.869 11.184-29.532 12.312-39.972C14.142 67.143 1.229 44.462.726 29.378.066 9.243 14.058.447 14.058.447s5.28 4.775 12.036 11.928l.012.023-13.092-2.963s-7.416 7.523-3.588 24.983"/></svg></svg><svg width="45" height="26" xmlns="http://www.w3.org/2000/svg" xmlns:xlink="http://www.w3.org/1999/xlink" xmlns:svgjs="http://svgjs.com/svgjs" viewBox="0.219 0 44.563 26" fill="#1f1410" x="626" y="3774"><svg xmlns="http://www.w3.org/2000/svg" xmlns:xlink="http://www.w3.org/1999/xlink" width="45" height="26" viewBox="0.864 0.534 43.156 25.179"><path paint-order="stroke fill markers" fill-rule="evenodd" d="M44.02 11.025l-1.23-.194-9.02-9.663c-.558-.598-1.5-.799-2.308-.49L3.8 11.221l-2.932.33v1.807a1.74 1.74 0 0 0 0 .228v.15l.016-.006c.05.299.179.592.417.848l9.803 10.5c.558.598 1.5.799 2.307.49l29.422-11.213c.628-.24 1.021-.722 1.141-1.254l.046.021v-2.098z"/></svg></svg><svg width="45" height="26" xmlns="http://www.w3.org/2000/svg" xmlns:xlink="http://www.w3.org/1999/xlink" xmlns:svgjs="http://svgjs.com/svgjs" viewBox="0.213 0 44.575 26" fill="#496471" x="626" y="3772"><svg xmlns="http://www.w3.org/2000/svg" xmlns:xlink="http://www.w3.org/1999/xlink" width="45" height="26" viewBox="0.854 0.436 43.166 25.179"><path paint-order="stroke fill markers" fill-rule="evenodd" d="M2.04 11.794L31.463.579c.807-.308 1.749-.108 2.307.49l9.802 10.501c.83.89.462 2.23-.739 2.687L13.411 25.471c-.807.308-1.749.108-2.307-.49l-9.803-10.5c-.83-.89-.46-2.23.74-2.687"/></svg></svg><svg width="41" height="24" xmlns="http://www.w3.org/2000/svg" xmlns:xlink="http://www.w3.org/1999/xlink" xmlns:svgjs="http://svgjs.com/svgjs" viewBox="0 0.568 41 22.864" fill="#38a2cb" x="628" y="3773"><svg xmlns="http://www.w3.org/2000/svg" xmlns:xlink="http://www.w3.org/1999/xlink" width="41" height="24" viewBox="0.073 0.669 40.729 22.713"><path paint-order="stroke fill markers" fill-rule="evenodd" d="M40.801 11.829l-30.31 11.553L.072 12.222 30.383.67l10.418 11.16z"/></svg></svg><svg width="8" height="5" xmlns="http://www.w3.org/2000/svg" xmlns:xlink="http://www.w3.org/1999/xlink" xmlns:svgjs="http://svgjs.com/svgjs" viewBox="0.34 0 7.321 5" fill="#78a957" x="634" y="3783"><svg xmlns="http://www.w3.org/2000/svg" xmlns:xlink="http://www.w3.org/1999/xlink" width="8" height="5" viewBox="0.94 0.543 6.113 4.175"><path paint-order="stroke fill markers" fill-rule="evenodd" d="M7.036 2.145C7.215 3.265 6 4.392 4.32 4.66c-1.678.268-3.184-.423-3.363-1.544C.778 1.996 1.994.87 3.672.601c1.679-.269 3.185.423 3.364 1.544"/></svg></svg><svg width="12" height="9" xmlns="http://www.w3.org/2000/svg" xmlns:xlink="http://www.w3.org/1999/xlink" xmlns:svgjs="http://svgjs.com/svgjs" viewBox="0 0.403 12 8.195" fill="#8dc9e7" x="644" y="3779"><svg xmlns="http://www.w3.org/2000/svg" xmlns:xlink="http://www.w3.org/1999/xlink" width="12" height="9" viewBox="0.491 0.747 11.118 7.592"><path paint-order="stroke fill markers" fill-rule="evenodd" d="M11.578 3.66c.325 2.038-1.885 4.086-4.938 4.574C3.588 8.722.85 7.465.523 5.427.197 3.387 2.408 1.34 5.461.852c3.052-.488 5.791.77 6.117 2.808"/></svg></svg><svg width="7" height="5" xmlns="http://www.w3.org/2000/svg" xmlns:xlink="http://www.w3.org/1999/xlink" xmlns:svgjs="http://svgjs.com/svgjs" viewBox="0 0.11 7 4.78" fill="#e1515e" x="638" y="3788"><svg xmlns="http://www.w3.org/2000/svg" xmlns:xlink="http://www.w3.org/1999/xlink" width="7" height="5" viewBox="0.675 0.028 6.114 4.175"><path paint-order="stroke fill markers" fill-rule="evenodd" d="M6.771 1.63c.18 1.12-1.036 2.246-2.715 2.515C2.378 4.413.872 3.722.693 2.6.513 1.48 1.729.354 3.407.086c1.68-.269 3.185.422 3.364 1.544"/></svg></svg><svg width="4" height="55" xmlns="http://www.w3.org/2000/svg" xmlns:xlink="http://www.w3.org/1999/xlink" xmlns:svgjs="http://svgjs.com/svgjs" viewBox="0.425 0 3.149 55" fill="#fefefe" x="569" y="3701"><svg xmlns="http://www.w3.org/2000/svg" xmlns:xlink="http://www.w3.org/1999/xlink" width="4" height="55" viewBox="0.13 0.259 3.119 54.479"><path paint-order="stroke fill markers" fill-rule="evenodd" d="M1.864 54.738a.5.5 0 0 1-.496-.565C3.904 34.898.17 1.153.133.814a.5.5 0 1 1 .993-.111c.039.34 3.785 34.206 1.233 53.6a.5.5 0 0 1-.495.435"/></svg></svg><svg width="28" height="22" xmlns="http://www.w3.org/2000/svg" xmlns:xlink="http://www.w3.org/1999/xlink" xmlns:svgjs="http://svgjs.com/svgjs" viewBox="0 0.411 28 21.177" fill="#3c3437" x="549" y="3660"><svg xmlns="http://www.w3.org/2000/svg" xmlns:xlink="http://www.w3.org/1999/xlink" width="28" height="22" viewBox="0.269 0.446 27.194 20.567"><path paint-order="stroke fill markers" fill-rule="evenodd" d="M27.462 20.926S6.587 22.618 2.607 11.058C-.803 2.531.522.446.522.446s22.771-.365 26.94 20.48"/></svg></svg><svg width="15" height="15" xmlns="http://www.w3.org/2000/svg" xmlns:xlink="http://www.w3.org/1999/xlink" xmlns:svgjs="http://svgjs.com/svgjs" viewBox="0 0.178 15 14.644" fill="#240003" x="541" y="3657"><svg xmlns="http://www.w3.org/2000/svg" xmlns:xlink="http://www.w3.org/1999/xlink" width="15" height="15" viewBox="0.485 0.686 13.99 13.658"><path paint-order="stroke fill markers" fill-rule="evenodd" d="M8.268 14.343l5.283-.71S18.22 3.093 6.563.906C-5.093-1.28 3.6 13.5 3.6 13.5l4.67.843z"/></svg></svg><svg width="21" height="28" xmlns="http://www.w3.org/2000/svg" xmlns:xlink="http://www.w3.org/1999/xlink" xmlns:svgjs="http://svgjs.com/svgjs" viewBox="0 0.334 21 27.332" fill="#240003" x="534" y="3663"><svg xmlns="http://www.w3.org/2000/svg" xmlns:xlink="http://www.w3.org/1999/xlink" width="21" height="28" viewBox="0.015 0.449 20.682 26.919"><path paint-order="stroke fill markers" fill-rule="evenodd" d="M4.686 26.927c.472.727 1.588.513 1.747-.34.564-3.022 1.973-7.84 5.3-8.864 4.926-1.516 10.173-7.779 8.716-13.834C18.993-2.166 3.015 1.615 3.015 1.615S-1.506 6.822.55 17.583c.48 2.51 4.135 9.344 4.135 9.344"/></svg></svg><svg width="4" height="4" xmlns="http://www.w3.org/2000/svg" xmlns:xlink="http://www.w3.org/1999/xlink" xmlns:svgjs="http://svgjs.com/svgjs" fill="#fefefe" x="536" y="3691"><svg xmlns="http://www.w3.org/2000/svg" xmlns:xlink="http://www.w3.org/1999/xlink" width="4" height="4" viewBox="0.251 0.146 3.225 3.225"><path paint-order="stroke fill markers" fill-rule="evenodd" d="M3.476 1.758a1.613 1.613 0 1 1-3.225 0 1.613 1.613 0 0 1 3.225 0"/></svg></svg><svg width="35" height="65" xmlns="http://www.w3.org/2000/svg" xmlns:xlink="http://www.w3.org/1999/xlink" xmlns:svgjs="http://svgjs.com/svgjs" viewBox="0.113 0 34.774 65" fill="#fefefe" x="537" y="3692"><svg xmlns="http://www.w3.org/2000/svg" xmlns:xlink="http://www.w3.org/1999/xlink" width="35" height="65" viewBox="0.363 0.259 34.114 63.768"><path paint-order="stroke fill markers" fill-rule="evenodd" d="M33.977 64.027a.498.498 0 0 1-.325-.121C7.164 41.13.435 1.238.37.839a.5.5 0 0 1 .987-.16c.064.396 6.74 39.934 32.947 62.47a.5.5 0 0 1-.327.878"/></svg></svg><svg width="4" height="4" xmlns="http://www.w3.org/2000/svg" xmlns:xlink="http://www.w3.org/1999/xlink" xmlns:svgjs="http://svgjs.com/svgjs" viewBox="0 0.18 4 3.64" fill="#fefefe" x="631" y="3793"><svg xmlns="http://www.w3.org/2000/svg" xmlns:xlink="http://www.w3.org/1999/xlink" width="4" height="4" viewBox="0.267 0.925 2.988 2.719"><path paint-order="stroke fill markers" fill-rule="evenodd" d="M3.255 2.078L1.301 3.555a.44.44 0 0 1-.618-.086l-.32-.423a.473.473 0 0 1 .092-.664L2.384.925l.871 1.153z"/></svg></svg><svg width="63" height="82" xmlns="http://www.w3.org/2000/svg" xmlns:xlink="http://www.w3.org/1999/xlink" xmlns:svgjs="http://svgjs.com/svgjs" viewBox="0.341 0 62.318 82" fill="#fefefe" x="570" y="3755"><svg xmlns="http://www.w3.org/2000/svg" xmlns:xlink="http://www.w3.org/1999/xlink" width="63" height="82" viewBox="0.478 0.027 61.786 81.3"><path paint-order="stroke fill markers" fill-rule="evenodd" d="M22.75 81.327c-2.58 0-4.786-1.23-6.557-3.657C4.327 61.405.63 3.035.478.558a.5.5 0 0 1 .998-.061c.037.603 3.83 60.555 15.525 76.583 1.594 2.186 3.474 3.248 5.748 3.248h.023c9.655-.03 23.623-19.428 31.969-31.018 2.955-4.103 5.288-7.343 6.672-8.709a.5.5 0 1 1 .702.712c-1.324 1.306-3.636 4.516-6.563 8.582-9.004 12.504-22.612 31.4-32.777 31.432h-.025z"/></svg></svg><svg width="55" height="30" xmlns="http://www.w3.org/2000/svg" xmlns:xlink="http://www.w3.org/1999/xlink" xmlns:svgjs="http://svgjs.com/svgjs" viewBox="0.04 0 54.92 30" fill="#eecdc5" x="595" y="3759"><svg xmlns="http://www.w3.org/2000/svg" xmlns:xlink="http://www.w3.org/1999/xlink" width="55" height="30" viewBox="0.829 0.414 53.241 29.083"><path paint-order="stroke fill markers" fill-rule="evenodd" d="M3.627 20.52s12.823-6.294 20.75-17.718c0 0 9.908-3.148 19.7-2.215 0 0 7.228 1.049 9.91 1.865 0 0 .466 1.632-.816 1.865 0 0-8.627-.932-10.492-.932-1.865 0-5.712.349-9.093 1.748 0 0 5.946 1.166 6.878 2.565 0 0-1.515 6.644-2.798 8.16l-6.644-1.283s-4.897 3.73-9.093 5.945c-4.197 2.216-7.81 1.982-7.81 1.982L2.81 29.497.829 21.802l2.798-1.282z"/></svg></svg><svg width="12" height="17" xmlns="http://www.w3.org/2000/svg" xmlns:xlink="http://www.w3.org/1999/xlink" xmlns:svgjs="http://svgjs.com/svgjs" viewBox="0 0.064 12 16.871" fill="#7fc6ce" x="589" y="3779"><svg xmlns="http://www.w3.org/2000/svg" xmlns:xlink="http://www.w3.org/1999/xlink" width="12" height="17" viewBox="0.184 0.404 11.774 16.554"><path paint-order="stroke fill markers" fill-rule="evenodd" d="M.184 4.017L8.344.404s3.498 6.878 3.615 12.706c-6.992 3.573-10.142 3.848-10.142 3.848L.184 4.018z"/></svg></svg><svg width="69" height="65" xmlns="http://www.w3.org/2000/svg" xmlns:xlink="http://www.w3.org/1999/xlink" xmlns:svgjs="http://svgjs.com/svgjs" viewBox="0.376 0 68.249 65" fill="#bf3d4b" x="526" y="3743"><svg xmlns="http://www.w3.org/2000/svg" width="69" height="65" viewBox="0.771 0.398 67.426 64.216"><path paint-order="stroke fill markers" fill-rule="evenodd" d="M19.236 4.929c7.847 8.927 28.095 38.353 28.095 38.353l16.553-4.663s3.03 8.743 4.313 15.155c-6.994 3.963-29.726 10.84-29.726 10.84S11.244 35.578 4.431 24.927c-3.016-4.714-6.45-15.901 0-21.979 5.826-5.488 12.34-.822 14.805 1.982"/></svg></svg></svg>