<svg width="106" height="15" xmlns="http://www.w3.org/2000/svg" xmlns:xlink="http://www.w3.org/1999/xlink" xmlns:svgjs="http://svgjs.com/svgjs" viewBox="261 329 106 15"><svg width="9" height="10" xmlns="http://www.w3.org/2000/svg" xmlns:xlink="http://www.w3.org/1999/xlink" xmlns:svgjs="http://svgjs.com/svgjs" viewBox="0 0.386 9 9.229" fill="none" stroke-miterlimit="100" stroke="#fff6f6" stroke-width="1.6" x="261" y="332"><svg xmlns="http://www.w3.org/2000/svg" xmlns:xlink="http://www.w3.org/1999/xlink" width="9" height="10" viewBox="0 0.471 8.995 9.224"><path paint-order="stroke fill markers" d="M.044 4.44C.39 1.919 2.664.163 5.124.517 7.582.87 9.296 3.202 8.95 5.725c-.347 2.521-2.621 4.279-5.08 3.924C1.41 9.296-.302 6.963.044 4.44z"/></svg></svg><svg width="14" height="15" xmlns="http://www.w3.org/2000/svg" xmlns:xlink="http://www.w3.org/1999/xlink" xmlns:svgjs="http://svgjs.com/svgjs" viewBox="0 0.321 14 14.358" fill="none" stroke-miterlimit="10" stroke-linejoin="round" stroke-linecap="round" stroke="#fff6f6" stroke-width="1.6" x="283" y="329"><svg xmlns="http://www.w3.org/2000/svg" xmlns:xlink="http://www.w3.org/1999/xlink" width="14" height="15" viewBox="0.485 1 13.065 13.399"><path paint-order="stroke fill markers" d="M13.55 10.967L10.203 1 .485 4.432l3.346 9.967 9.72-3.432z"/></svg></svg><svg width="9" height="14" xmlns="http://www.w3.org/2000/svg" xmlns:xlink="http://www.w3.org/1999/xlink" xmlns:svgjs="http://svgjs.com/svgjs" viewBox="0.346 0 8.309 14" fill="none" stroke-miterlimit="10" stroke-linejoin="round" stroke-linecap="round" stroke="#fff6f6" stroke-width="1.6" x="309" y="330"><svg xmlns="http://www.w3.org/2000/svg" xmlns:xlink="http://www.w3.org/1999/xlink" width="9" height="14" viewBox="0.985 0.824 7.517 12.666"><path paint-order="stroke fill markers" d="M.985 13.49l7.517-4.644L4.526.824.985 13.489"/></svg></svg><svg width="21" height="13" xmlns="http://www.w3.org/2000/svg" xmlns:xlink="http://www.w3.org/1999/xlink" xmlns:svgjs="http://svgjs.com/svgjs" viewBox="0.174 0 20.652 13" fill="none" stroke-miterlimit="10" stroke-linejoin="round" stroke-linecap="round" stroke="#fff6f6" stroke-width="1.6" x="327" y="330"><svg xmlns="http://www.w3.org/2000/svg" xmlns:xlink="http://www.w3.org/1999/xlink" width="21" height="13" viewBox="0.652 0 20.153 12.686"><path paint-order="stroke fill markers" d="M20.804 10.08l-7.476 2.605-2.6-7.646-7.476 2.607L.652 0l20.152 10.08"/></svg></svg><svg width="9" height="11" xmlns="http://www.w3.org/2000/svg" xmlns:xlink="http://www.w3.org/1999/xlink" xmlns:svgjs="http://svgjs.com/svgjs" viewBox="0 0.551 9 9.897" fill="none" stroke-miterlimit="10" stroke-linejoin="round" stroke-linecap="round" stroke="#fff6f6" stroke-width="1.6" x="358" y="331"><svg xmlns="http://www.w3.org/2000/svg" width="9" height="11" viewBox="0.167 0.647 8.763 9.636"><path paint-order="stroke fill markers" d="M.167 10.283L8.929.647.167 10.283"/></svg></svg></svg>